<svg xmlns="http://www.w3.org/2000/svg" width="1450" height="688" viewBox="0 0 1450 688" fill="none"><g clip-path="url(#clip0_2622_2)"><path d="M2259.4 687.655C2259.4 781.786 2216.76 871.584 2139.38 953.398C2062 1035.22 1949.95 1108.98 1811.37 1170.97C1534.2 1294.93 1151.17 1371.64 728.009 1371.64C304.844 1371.64 -78.1793 1294.93 -355.349 1170.97C-493.936 1108.98 -605.986 1035.22 -683.366 953.398C-760.739 871.584 -803.386 781.786 -803.386 687.655C-803.386 593.525 -760.739 503.727 -683.366 421.913C-605.986 340.09 -493.936 266.328 -355.349 204.345C-78.1793 80.3822 304.844 3.66667 728.009 3.66667C1151.17 3.66667 1534.2 80.3822 1811.37 204.345C1949.95 266.328 2062 340.09 2139.38 421.913C2216.76 503.727 2259.4 593.525 2259.4 687.655Z" fill="#FCF9F3" stroke="#201A17" stroke-width="3.33333"></path><mask id="mask0_2622_2" style="mask-type:alpha" maskUnits="userSpaceOnUse" x="-806" y="2" width="3068" height="1372"><path d="M2261.07 687.656C2261.07 1066.33 1574.69 1373.31 728.009 1373.31C-118.678 1373.31 -805.053 1066.33 -805.053 687.656C-805.053 308.979 -118.678 2.00098 728.009 2.00098C1574.69 2.00098 2261.07 308.979 2261.07 687.656Z" fill="#D9D9D9"></path></mask><g mask="url(#mask0_2622_2)"><path opacity="0.5" d="M168.481 711.981C172.037 711.622 175.713 711.293 179.479 711.024C147.172 684.665 89.0729 667.047 22.8749 667.047C-43.323 667.047 -100.465 684.381 -132.922 710.352C-131.517 710.442 -130.142 710.531 -128.857 710.681C-126.168 710.382 -123.358 710.262 -120.459 710.218C-89.2282 687.28 -36.6883 672.143 22.8749 672.143C82.4381 672.143 137.578 688.057 168.481 711.981Z" fill="#EAEAEA"></path><path opacity="0.5" d="M523.886 710.77C527.532 710.367 531.178 710.008 534.854 709.709C502.249 684.067 444.957 667.017 379.835 667.017C314.713 667.017 256.225 684.44 223.799 710.516C227.535 710.77 231.151 711.144 234.677 711.607C265.669 687.877 319.076 672.127 379.835 672.127C440.593 672.127 492.775 687.519 523.916 710.77H523.886Z" fill="#EAEAEA"></path><path opacity="0.5" d="M880.937 710.86C884.584 710.471 888.289 710.142 891.995 709.874C859.419 684.141 802.038 667.017 736.766 667.017C671.495 667.017 615.369 683.768 582.613 709.022C586.409 709.216 590.204 709.47 593.94 709.799C625.231 687.07 677.532 672.127 736.766 672.127C796.001 672.127 849.826 687.548 880.937 710.86Z" fill="#EAEAEA"></path><path opacity="0.5" d="M1238.08 711.009C1241.72 710.605 1245.37 710.247 1249.05 709.963C1216.5 684.186 1159.06 667.031 1093.7 667.031C1028.34 667.031 971.313 684.066 938.707 709.679C942.473 709.918 946.208 710.202 949.914 710.561C981.086 687.429 1033.83 672.127 1093.7 672.127C1153.56 672.127 1206.97 687.623 1238.08 711.009Z" fill="#EAEAEA"></path><path opacity="0.5" d="M1593.96 710.172C1597.64 709.783 1601.34 709.47 1605.05 709.201C1572.32 683.842 1515.36 667.031 1450.66 667.031C1385.95 667.031 1328.39 684.022 1295.79 709.589C1299.58 709.813 1303.32 710.097 1307.02 710.441C1338.23 687.369 1390.89 672.127 1450.66 672.127C1510.43 672.127 1562.73 687.249 1593.96 710.172Z" fill="#EAEAEA"></path><path opacity="0.5" d="M343.914 671.14C347.56 670.737 351.206 670.378 354.882 670.079C322.276 644.437 264.984 627.387 199.862 627.387C134.74 627.387 76.2527 644.81 43.8262 670.886C47.5619 671.14 51.1782 671.514 54.7048 671.977C85.6968 648.262 139.074 632.497 199.862 632.497C260.651 632.497 312.802 647.889 343.943 671.14H343.914Z" fill="#EAEAEA"></path><path opacity="0.5" d="M288.654 682.153C291.374 681.346 294.094 680.584 296.873 679.852C274.936 664.924 239.671 655.166 199.832 655.166C162.534 655.166 129.152 663.684 107.006 677.043C109.845 677.76 112.595 678.567 115.284 679.434C135.697 667.464 166.001 659.843 199.832 659.843C236.144 659.843 268.361 668.645 288.654 682.153Z" fill="#EAEAEA"></path><path opacity="0.5" d="M700.994 671.23C704.64 670.841 708.346 670.513 712.052 670.244C679.476 644.512 622.094 627.387 556.823 627.387C491.551 627.387 435.425 644.138 402.67 669.392C406.465 669.586 410.261 669.84 413.997 670.169C445.288 647.44 497.588 632.497 556.823 632.497C616.057 632.497 669.882 647.918 700.994 671.23Z" fill="#EAEAEA"></path><path opacity="0.5" d="M645.615 682.153C648.335 681.346 651.084 680.584 653.864 679.852C631.927 664.909 596.632 655.166 556.823 655.166C517.015 655.166 484.379 664.192 462.293 678.178C465.072 678.896 467.852 679.643 470.572 680.45C490.954 667.898 522.036 659.843 556.823 659.843C591.611 659.843 625.352 668.645 645.645 682.153H645.615Z" fill="#EAEAEA"></path><path opacity="0.5" d="M1058.1 671.365C1061.75 670.961 1065.4 670.602 1069.07 670.319C1036.53 644.542 979.085 627.372 913.724 627.372C848.363 627.372 791.34 644.407 758.734 670.02C762.5 670.259 766.236 670.543 769.942 670.901C801.113 647.769 853.862 632.468 913.724 632.468C973.586 632.468 1026.99 647.964 1058.1 671.35V671.365Z" fill="#EAEAEA"></path><path opacity="0.5" d="M1002.99 682.437C1005.68 681.63 1008.43 680.853 1011.21 680.121C989.306 665.028 953.831 655.166 913.783 655.166C873.736 655.166 839.725 664.64 817.699 679.21C820.479 679.942 823.228 680.704 825.948 681.511C846.3 668.376 878.039 659.858 913.783 659.858C949.527 659.858 982.761 668.779 1003.02 682.452L1002.99 682.437Z" fill="#EAEAEA"></path><path opacity="0.5" d="M1413.99 670.543C1417.67 670.155 1421.37 669.841 1425.08 669.572C1392.35 644.213 1335.39 627.402 1270.68 627.402C1205.98 627.402 1148.42 644.393 1115.81 669.96C1119.61 670.184 1123.35 670.468 1127.05 670.812C1158.25 647.74 1210.91 632.498 1270.68 632.498C1330.46 632.498 1382.76 647.62 1413.99 670.543Z" fill="#EAEAEA"></path><path opacity="0.5" d="M1358.49 681.482C1361.21 680.69 1363.96 679.912 1366.74 679.195C1344.71 664.641 1309.93 655.182 1270.71 655.182C1231.5 655.182 1197.07 664.536 1175.05 678.956C1177.86 679.673 1180.61 680.435 1183.33 681.227C1203.68 668.257 1235.24 659.874 1270.71 659.874C1306.19 659.874 1338.17 668.376 1358.52 681.496L1358.49 681.482Z" fill="#EAEAEA"></path><path opacity="0.5" d="M168.481 632.692C172.037 632.333 175.713 632.004 179.479 631.735C147.172 605.376 89.0729 587.758 22.8749 587.758C-43.323 587.758 -100.465 605.092 -132.922 631.063C-131.517 631.153 -130.142 631.242 -128.857 631.392C-126.168 631.093 -123.358 630.973 -120.459 630.928C-89.2282 607.991 -36.6883 592.853 22.8749 592.853C82.4381 592.853 137.578 608.783 168.481 632.692Z" fill="#EAEAEA"></path><path opacity="0.5" d="M113.7 643.869C113.879 643.825 114.028 643.765 114.208 643.72C116.748 642.958 119.348 642.271 121.948 641.583C100.191 625.863 63.9092 615.522 22.8456 615.522C-18.2181 615.522 -51.3918 625.041 -73.418 639.685C-70.4891 640.328 -67.5901 640.971 -64.6912 641.658C-44.3386 628.628 -12.719 620.215 22.8456 620.215C60.3826 620.215 93.5563 629.584 113.7 643.869Z" fill="#EAEAEA"></path><path opacity="0.5" d="M61.7568 667.031C63.7891 665.627 65.9409 664.297 68.1823 663.012C59.2464 655.107 42.3009 649.742 22.8748 649.742C4.64425 649.742 -11.4046 654.464 -20.6992 661.592C-18.7566 663.071 -16.9037 664.581 -15.1404 666.12C-8.08728 659.186 6.28802 654.419 22.9048 654.419C39.5215 654.419 55.1221 659.605 61.8166 667.016L61.7568 667.031Z" fill="#EAEAEA"></path><path opacity="0.5" d="M523.886 631.497C527.532 631.093 531.178 630.734 534.854 630.436C502.249 604.793 444.957 587.743 379.835 587.743C314.713 587.743 256.225 605.167 223.799 631.243C227.535 631.497 231.151 631.87 234.677 632.333C265.669 608.604 319.076 592.854 379.835 592.854C440.593 592.854 492.775 608.245 523.916 631.497H523.886Z" fill="#EAEAEA"></path><path opacity="0.5" d="M468.627 642.524C471.347 641.717 474.066 640.955 476.846 640.223C454.909 625.295 419.643 615.537 379.805 615.537C342.507 615.537 309.124 624.055 286.979 637.414C289.818 638.131 292.567 638.938 295.257 639.805C315.669 627.835 345.974 620.214 379.805 620.214C416.117 620.214 448.334 629.016 468.627 642.524Z" fill="#EAEAEA"></path><path opacity="0.5" d="M416.446 664.865C418.538 663.595 420.66 662.355 422.842 661.159C413.457 654.286 397.677 649.758 379.805 649.758C361.934 649.758 345.347 654.54 336.082 661.727C338.025 663.222 339.907 664.716 341.701 666.225C348.724 659.247 363.159 654.435 379.805 654.435C395.376 654.435 408.974 658.634 416.446 664.865Z" fill="#EAEAEA"></path><path opacity="0.5" d="M880.937 631.586C884.584 631.198 888.289 630.869 891.995 630.6C859.419 604.868 802.038 587.743 736.766 587.743C671.495 587.743 615.369 604.494 582.613 629.748C586.409 629.942 590.204 630.197 593.94 630.525C625.231 607.797 677.532 592.854 736.766 592.854C796.001 592.854 849.826 608.275 880.937 631.586Z" fill="#EAEAEA"></path><path opacity="0.5" d="M825.558 642.524C828.278 641.717 831.027 640.955 833.807 640.223C811.87 625.28 776.575 615.537 736.766 615.537C696.958 615.537 664.322 624.563 642.236 638.549C645.016 639.267 647.795 640.014 650.515 640.821C670.897 628.269 701.979 620.214 736.766 620.214C771.554 620.214 805.295 629.016 825.588 642.524H825.558Z" fill="#EAEAEA"></path><path opacity="0.5" d="M773.497 664.939C775.559 663.669 777.681 662.414 779.892 661.204C770.538 654.3 754.698 649.742 736.766 649.742C719.97 649.742 705.057 653.747 695.523 659.948C697.556 661.174 699.558 662.444 701.501 663.759C709.211 658.14 722.122 654.434 736.766 654.434C752.397 654.434 766.055 658.663 773.497 664.954V664.939Z" fill="#EAEAEA"></path><path opacity="0.5" d="M1238.08 631.735C1241.72 631.332 1245.37 630.973 1249.05 630.689C1216.5 604.912 1159.06 587.758 1093.7 587.758C1028.34 587.758 971.313 604.793 938.707 630.405C942.473 630.644 946.208 630.928 949.914 631.287C981.086 608.155 1033.83 592.853 1093.7 592.853C1153.56 592.853 1206.97 608.349 1238.08 631.735Z" fill="#EAEAEA"></path><path opacity="0.5" d="M1182.94 642.808C1185.63 642.001 1188.38 641.224 1191.13 640.492C1169.22 625.399 1133.75 615.537 1093.7 615.537C1053.65 615.537 1019.64 625.011 997.613 639.581C1000.39 640.313 1003.14 641.075 1005.86 641.882C1026.21 628.747 1057.95 620.229 1093.7 620.229C1129.44 620.229 1162.67 629.15 1182.94 642.823V642.808Z" fill="#EAEAEA"></path><path opacity="0.5" d="M1131.05 665.446C1133.12 664.161 1135.24 662.906 1137.42 661.681C1128.13 654.508 1112.05 649.756 1093.73 649.756C1075.41 649.756 1060.43 654.194 1051.02 660.933C1053.14 662.189 1055.2 663.459 1057.21 664.759C1064.71 658.572 1078.25 654.418 1093.7 654.418C1109.15 654.418 1123.73 658.871 1131.02 665.431L1131.05 665.446Z" fill="#EAEAEA"></path><path opacity="0.5" d="M1593.96 630.899C1597.64 630.51 1601.34 630.196 1605.05 629.927C1572.32 604.569 1515.36 587.758 1450.66 587.758C1385.95 587.758 1328.39 604.748 1295.79 630.316C1299.58 630.54 1303.32 630.824 1307.02 631.168C1338.23 608.095 1390.89 592.853 1450.66 592.853C1510.43 592.853 1562.73 607.976 1593.96 630.899Z" fill="#EAEAEA"></path><path opacity="0.5" d="M1538.43 641.837C1541.15 641.045 1543.9 640.268 1546.68 639.551C1524.66 624.996 1489.87 615.537 1450.66 615.537C1411.45 615.537 1377.02 624.891 1354.99 639.312C1357.8 640.029 1360.55 640.791 1363.27 641.583C1383.62 628.612 1415.18 620.229 1450.66 620.229C1486.13 620.229 1518.11 628.732 1538.46 641.852L1538.43 641.837Z" fill="#EAEAEA"></path><path opacity="0.5" d="M1486.46 664.176C1488.49 662.921 1490.58 661.71 1492.74 660.515C1483.26 654 1467.96 649.756 1450.66 649.756C1433.35 649.756 1418.11 654 1408.64 660.485C1410.76 661.71 1412.79 662.966 1414.79 664.251C1422.38 658.348 1435.62 654.433 1450.69 654.433C1465.75 654.433 1478.87 658.318 1486.49 664.191L1486.46 664.176Z" fill="#EAEAEA"></path><path opacity="0.5" d="M343.914 591.868C347.56 591.464 351.206 591.105 354.882 590.807C322.276 565.164 264.984 548.114 199.862 548.114C134.74 548.114 76.2527 565.538 43.8262 591.614C47.5619 591.868 51.1782 592.241 54.7048 592.704C85.6968 568.975 139.074 553.225 199.862 553.225C260.651 553.225 312.802 568.616 343.943 591.868H343.914Z" fill="#EAEAEA"></path><path opacity="0.5" d="M288.654 602.881C291.374 602.074 294.094 601.312 296.873 600.58C274.936 585.651 239.671 575.894 199.832 575.894C162.534 575.894 129.152 584.411 107.006 597.77C109.845 598.488 112.595 599.294 115.284 600.161C135.697 588.192 166.001 580.571 199.832 580.571C236.144 580.571 268.361 589.372 288.654 602.881Z" fill="#EAEAEA"></path><path opacity="0.5" d="M236.473 625.221C238.565 623.951 240.687 622.71 242.869 621.515C233.485 614.641 217.705 610.113 199.833 610.113C181.961 610.113 165.374 614.895 156.109 622.083C158.052 623.577 159.935 625.071 161.728 626.581C168.751 619.602 183.186 614.79 199.833 614.79C215.404 614.79 229.002 618.989 236.473 625.221Z" fill="#EAEAEA"></path><path opacity="0.5" d="M700.994 591.943C704.64 591.554 708.346 591.225 712.052 590.956C679.476 565.224 622.094 548.1 556.823 548.1C491.551 548.1 435.425 564.851 402.67 590.105C406.465 590.299 410.261 590.553 413.997 590.882C445.288 568.153 497.588 553.21 556.823 553.21C616.057 553.21 669.882 568.631 700.994 591.943Z" fill="#EAEAEA"></path><path opacity="0.5" d="M645.615 602.881C648.335 602.074 651.084 601.312 653.864 600.58C631.927 585.636 596.632 575.894 556.823 575.894C517.015 575.894 484.379 584.919 462.293 598.906C465.072 599.623 467.852 600.37 470.572 601.177C490.954 588.625 522.036 580.571 556.823 580.571C591.611 580.571 625.352 589.372 645.645 602.881H645.615Z" fill="#EAEAEA"></path><path opacity="0.5" d="M593.524 625.31C595.586 624.04 597.708 622.785 599.92 621.575C590.565 614.671 574.725 610.113 556.794 610.113C539.998 610.113 525.084 614.118 515.551 620.319C517.583 621.545 519.585 622.815 521.528 624.13C529.239 618.511 542.149 614.805 556.794 614.805C572.424 614.805 586.082 619.034 593.524 625.325V625.31Z" fill="#EAEAEA"></path><path opacity="0.5" d="M1058.1 592.092C1061.75 591.688 1065.4 591.33 1069.07 591.046C1036.53 565.269 979.085 548.114 913.724 548.114C848.363 548.114 791.34 565.149 758.734 590.762C762.5 591.001 766.236 591.285 769.942 591.643C801.113 568.512 853.862 553.21 913.724 553.21C973.586 553.21 1026.99 568.706 1058.1 592.092Z" fill="#EAEAEA"></path><path opacity="0.5" d="M1002.99 603.165C1005.68 602.358 1008.43 601.581 1011.21 600.849C989.306 585.756 953.831 575.894 913.783 575.894C873.736 575.894 839.725 585.368 817.699 599.937C820.479 600.669 823.228 601.431 825.948 602.238C846.3 589.103 878.039 580.586 913.783 580.586C949.527 580.586 982.761 589.507 1003.02 603.18L1002.99 603.165Z" fill="#EAEAEA"></path><path opacity="0.5" d="M951.082 625.804C953.144 624.518 955.266 623.263 957.448 622.038C948.153 614.865 932.074 610.113 913.754 610.113C895.434 610.113 880.461 614.551 871.047 621.291C873.169 622.546 875.231 623.816 877.233 625.116C884.735 618.93 898.273 614.79 913.724 614.79C929.176 614.79 943.76 619.244 951.052 625.804H951.082Z" fill="#EAEAEA"></path><path opacity="0.5" d="M1413.99 591.27C1417.67 590.881 1421.37 590.567 1425.08 590.298C1392.35 564.94 1335.39 548.129 1270.68 548.129C1205.98 548.129 1148.42 565.119 1115.81 590.687C1119.61 590.911 1123.35 591.195 1127.05 591.539C1158.25 568.467 1210.91 553.225 1270.68 553.225C1330.46 553.225 1382.76 568.347 1413.99 591.27Z" fill="#EAEAEA"></path><path opacity="0.5" d="M1358.49 602.193C1361.21 601.401 1363.96 600.624 1366.74 599.907C1344.71 585.353 1309.93 575.894 1270.71 575.894C1231.5 575.894 1197.07 585.248 1175.05 599.668C1177.86 600.385 1180.61 601.147 1183.33 601.939C1203.68 588.969 1235.24 580.586 1270.71 580.586C1306.19 580.586 1338.17 589.088 1358.52 602.208L1358.49 602.193Z" fill="#EAEAEA"></path><path opacity="0.5" d="M1306.49 624.547C1308.52 623.292 1310.61 622.081 1312.76 620.886C1303.29 614.371 1287.99 610.127 1270.68 610.127C1253.38 610.127 1238.14 614.371 1228.66 620.856C1230.79 622.081 1232.82 623.337 1234.82 624.622C1242.41 618.719 1255.65 614.804 1270.71 614.804C1285.78 614.804 1298.9 618.689 1306.52 624.562L1306.49 624.547Z" fill="#EAEAEA"></path><path opacity="0.5" d="M168.481 553.419C172.037 553.061 175.713 552.732 179.479 552.463C147.172 526.103 89.0729 508.485 22.8749 508.485C-43.323 508.485 -100.465 525.819 -132.922 551.79C-131.517 551.88 -130.142 551.97 -128.857 552.119C-126.168 551.82 -123.358 551.701 -120.459 551.656C-89.2282 528.718 -36.6883 513.581 22.8749 513.581C82.4381 513.581 137.578 529.51 168.481 553.419Z" fill="#EAEAEA"></path><path opacity="0.5" d="M113.7 564.597C113.879 564.552 114.028 564.492 114.208 564.448C116.748 563.686 119.348 562.998 121.948 562.311C100.191 546.591 63.9092 536.25 22.8456 536.25C-18.2181 536.25 -51.3918 545.769 -73.418 560.413C-70.4891 561.056 -67.5901 561.698 -64.6912 562.385C-44.3386 549.355 -12.719 540.942 22.8456 540.942C60.3826 540.942 93.5563 550.311 113.7 564.597Z" fill="#EAEAEA"></path><path opacity="0.5" d="M61.7568 587.744C63.7891 586.34 65.9409 585.01 68.1823 583.725C59.2464 575.82 42.3009 570.455 22.8748 570.455C4.64425 570.455 -11.4046 575.177 -20.6992 582.305C-18.7566 583.784 -16.9037 585.294 -15.1404 586.833C-8.08728 579.899 6.28802 575.132 22.9048 575.132C39.5215 575.132 55.1221 580.318 61.8166 587.729L61.7568 587.744Z" fill="#EAEAEA"></path><path opacity="0.5" d="M523.886 552.224C527.532 551.821 531.178 551.462 534.854 551.163C502.249 525.521 444.957 508.471 379.835 508.471C314.713 508.471 256.225 525.894 223.799 551.97C227.535 552.224 231.151 552.598 234.677 553.061C265.669 529.331 319.076 513.581 379.835 513.581C440.593 513.581 492.775 528.973 523.916 552.224H523.886Z" fill="#EAEAEA"></path><path opacity="0.5" d="M468.627 563.237C471.347 562.43 474.066 561.668 476.846 560.936C454.909 546.008 419.643 536.25 379.805 536.25C342.507 536.25 309.124 544.768 286.979 558.127C289.818 558.844 292.567 559.651 295.257 560.518C315.669 548.548 345.974 540.927 379.805 540.927C416.117 540.927 448.334 549.729 468.627 563.237Z" fill="#EAEAEA"></path><path opacity="0.5" d="M416.446 585.576C418.538 584.306 420.66 583.066 422.842 581.87C413.457 574.997 397.677 570.469 379.805 570.469C361.934 570.469 345.347 575.251 336.082 582.438C338.025 583.933 339.907 585.427 341.701 586.936C348.724 579.958 363.159 575.146 379.805 575.146C395.376 575.146 408.974 579.345 416.446 585.576Z" fill="#EAEAEA"></path><path opacity="0.5" d="M880.937 552.314C884.584 551.925 888.289 551.596 891.995 551.328C859.419 525.595 802.038 508.471 736.766 508.471C671.495 508.471 615.369 525.222 582.613 550.476C586.409 550.67 590.204 550.924 593.94 551.253C625.231 528.524 677.532 513.581 736.766 513.581C796.001 513.581 849.826 529.003 880.937 552.314Z" fill="#EAEAEA"></path><path opacity="0.5" d="M825.558 563.237C828.278 562.43 831.027 561.668 833.807 560.936C811.87 545.993 776.575 536.25 736.766 536.25C696.958 536.25 664.322 545.276 642.236 559.262C645.016 559.98 647.795 560.727 650.515 561.534C670.897 548.982 701.979 540.927 736.766 540.927C771.554 540.927 805.295 549.729 825.588 563.237H825.558Z" fill="#EAEAEA"></path><path opacity="0.5" d="M773.497 585.666C775.559 584.396 777.681 583.14 779.892 581.93C770.538 575.026 754.698 570.469 736.766 570.469C719.97 570.469 705.057 574.474 695.523 580.675C697.556 581.9 699.558 583.17 701.501 584.485C709.211 578.867 722.122 575.161 736.766 575.161C752.397 575.161 766.055 579.39 773.497 585.681V585.666Z" fill="#EAEAEA"></path><path opacity="0.5" d="M1238.08 552.448C1241.72 552.045 1245.37 551.686 1249.05 551.402C1216.5 525.625 1159.06 508.471 1093.7 508.471C1028.34 508.471 971.313 525.506 938.707 551.118C942.473 551.357 946.208 551.641 949.914 552C981.086 528.868 1033.83 513.566 1093.7 513.566C1153.56 513.566 1206.97 529.062 1238.08 552.448Z" fill="#EAEAEA"></path><path opacity="0.5" d="M1182.94 563.521C1185.63 562.714 1188.38 561.937 1191.13 561.205C1169.22 546.112 1133.75 536.25 1093.7 536.25C1053.65 536.25 1019.64 545.724 997.613 560.293C1000.39 561.026 1003.14 561.788 1005.86 562.595C1026.21 549.46 1057.95 540.942 1093.7 540.942C1129.44 540.942 1162.67 549.863 1182.94 563.536V563.521Z" fill="#EAEAEA"></path><path opacity="0.5" d="M1131.05 586.175C1133.12 584.89 1135.24 583.634 1137.42 582.409C1128.13 575.236 1112.05 570.484 1093.73 570.484C1075.41 570.484 1060.43 574.922 1051.02 581.662C1053.14 582.917 1055.2 584.187 1057.21 585.487C1064.71 579.301 1078.25 575.147 1093.7 575.147C1109.15 575.147 1123.73 579.6 1131.02 586.16L1131.05 586.175Z" fill="#EAEAEA"></path><path opacity="0.5" d="M1593.96 551.626C1597.64 551.238 1601.34 550.924 1605.05 550.655C1572.32 525.296 1515.36 508.485 1450.66 508.485C1385.95 508.485 1328.39 525.476 1295.79 551.043C1299.58 551.267 1303.32 551.551 1307.02 551.895C1338.23 528.823 1390.89 513.581 1450.66 513.581C1510.43 513.581 1562.73 528.703 1593.96 551.626Z" fill="#EAEAEA"></path><path opacity="0.5" d="M1538.43 562.565C1541.15 561.773 1543.9 560.996 1546.68 560.278C1524.66 545.724 1489.87 536.265 1450.66 536.265C1411.45 536.265 1377.02 545.619 1354.99 560.039C1357.8 560.756 1360.55 561.519 1363.27 562.311C1383.62 549.34 1415.18 540.957 1450.66 540.957C1486.13 540.957 1518.11 549.459 1538.46 562.58L1538.43 562.565Z" fill="#EAEAEA"></path><path opacity="0.5" d="M1486.46 584.905C1488.49 583.649 1490.58 582.439 1492.74 581.243C1483.26 574.728 1467.96 570.484 1450.66 570.484C1433.35 570.484 1418.11 574.728 1408.64 581.214C1410.76 582.439 1412.79 583.694 1414.79 584.979C1422.38 579.077 1435.62 575.162 1450.69 575.162C1465.75 575.162 1478.87 579.047 1486.49 584.919L1486.46 584.905Z" fill="#EAEAEA"></path><path opacity="0.5" d="M343.914 512.58C347.56 512.176 351.206 511.817 354.882 511.519C322.276 485.876 264.984 468.826 199.862 468.826C134.74 468.826 76.2527 486.25 43.8262 512.326C47.5619 512.58 51.1782 512.953 54.7048 513.416C85.6968 489.702 139.074 473.937 199.862 473.937C260.651 473.937 312.802 489.328 343.943 512.58H343.914Z" fill="#EAEAEA"></path><path opacity="0.5" d="M288.654 523.608C291.374 522.801 294.094 522.039 296.873 521.307C274.936 506.379 239.671 496.621 199.832 496.621C162.534 496.621 129.152 505.139 107.006 518.498C109.845 519.215 112.595 520.022 115.284 520.889C135.697 508.919 166.001 501.298 199.832 501.298C236.144 501.298 268.361 510.1 288.654 523.608Z" fill="#EAEAEA"></path><path opacity="0.5" d="M236.473 545.947C238.565 544.677 240.687 543.437 242.869 542.241C233.485 535.368 217.705 530.84 199.833 530.84C181.961 530.84 165.374 535.622 156.109 542.809C158.052 544.304 159.935 545.798 161.728 547.307C168.751 540.329 183.186 535.517 199.833 535.517C215.404 535.517 229.002 539.716 236.473 545.947Z" fill="#EAEAEA"></path><path opacity="0.5" d="M700.994 512.669C704.64 512.281 708.346 511.952 712.052 511.683C679.476 485.951 622.094 468.826 556.823 468.826C491.551 468.826 435.425 485.577 402.67 510.831C406.465 511.026 410.261 511.28 413.997 511.608C445.288 488.88 497.588 473.937 556.823 473.937C616.057 473.937 669.882 489.358 700.994 512.669Z" fill="#EAEAEA"></path><path opacity="0.5" d="M645.615 523.608C648.335 522.801 651.084 522.039 653.864 521.307C631.927 506.364 596.632 496.621 556.823 496.621C517.015 496.621 484.379 505.647 462.293 519.633C465.072 520.351 467.852 521.098 470.572 521.905C490.954 509.353 522.036 501.298 556.823 501.298C591.611 501.298 625.352 510.1 645.645 523.608H645.615Z" fill="#EAEAEA"></path><path opacity="0.5" d="M593.524 546.037C595.586 544.767 597.708 543.512 599.92 542.301C590.565 535.398 574.725 530.84 556.794 530.84C539.998 530.84 525.084 534.86 515.551 541.046C517.583 542.271 519.585 543.541 521.528 544.856C529.239 539.238 542.149 535.532 556.794 535.532C572.424 535.532 586.082 539.761 593.524 546.052V546.037Z" fill="#EAEAEA"></path><path opacity="0.5" d="M1058.1 512.819C1061.75 512.415 1065.4 512.057 1069.07 511.773C1036.53 485.996 979.085 468.826 913.724 468.826C848.363 468.826 791.34 485.861 758.734 511.474C762.5 511.713 766.236 511.997 769.942 512.355C801.113 489.224 853.862 473.922 913.724 473.922C973.586 473.922 1026.99 489.418 1058.1 512.804V512.819Z" fill="#EAEAEA"></path><path opacity="0.5" d="M1002.99 523.892C1005.68 523.085 1008.43 522.308 1011.21 521.576C989.306 506.484 953.831 496.621 913.783 496.621C873.736 496.621 839.725 506.095 817.699 520.664C820.479 521.397 823.228 522.159 825.948 522.966C846.3 509.831 878.039 501.313 913.783 501.313C949.527 501.313 982.761 510.234 1003.02 523.907L1002.99 523.892Z" fill="#EAEAEA"></path><path opacity="0.5" d="M951.082 546.53C953.144 545.245 955.266 543.99 957.448 542.765C948.153 535.592 932.074 530.84 913.754 530.84C895.434 530.84 880.461 535.278 871.047 542.017C873.169 543.273 875.231 544.543 877.233 545.843C884.735 539.656 898.273 535.502 913.724 535.502C929.176 535.502 943.76 539.955 951.052 546.515L951.082 546.53Z" fill="#EAEAEA"></path><path opacity="0.5" d="M1413.99 511.982C1417.67 511.593 1421.37 511.279 1425.08 511.01C1392.35 485.652 1335.39 468.841 1270.68 468.841C1205.98 468.841 1148.42 485.831 1115.81 511.399C1119.61 511.623 1123.35 511.907 1127.05 512.251C1158.25 489.178 1210.91 473.936 1270.68 473.936C1330.46 473.936 1382.76 489.059 1413.99 511.982Z" fill="#EAEAEA"></path><path opacity="0.5" d="M1358.49 522.92C1361.21 522.128 1363.96 521.351 1366.74 520.634C1344.71 506.079 1309.93 496.62 1270.71 496.62C1231.5 496.62 1197.07 505.974 1175.05 520.395C1177.86 521.112 1180.61 521.874 1183.33 522.666C1203.68 509.695 1235.24 501.312 1270.71 501.312C1306.19 501.312 1338.17 509.815 1358.52 522.935L1358.49 522.92Z" fill="#EAEAEA"></path><path opacity="0.5" d="M1306.49 545.26C1308.52 544.005 1310.61 542.794 1312.76 541.599C1303.29 535.084 1287.99 530.84 1270.68 530.84C1253.38 530.84 1238.14 535.084 1228.66 541.569C1230.79 542.794 1232.82 544.05 1234.82 545.335C1242.41 539.432 1255.65 535.517 1270.71 535.517C1285.78 535.517 1298.9 539.402 1306.52 545.275L1306.49 545.26Z" fill="#EAEAEA"></path><path opacity="0.5" d="M168.481 474.145C172.037 473.786 175.713 473.458 179.479 473.189C147.172 446.829 89.0729 429.211 22.8749 429.211C-43.323 429.211 -100.465 446.545 -132.922 472.516C-131.517 472.606 -130.142 472.695 -128.857 472.845C-126.168 472.546 -123.358 472.426 -120.459 472.382C-89.2282 449.444 -36.6883 434.307 22.8749 434.307C82.4381 434.307 137.578 450.236 168.481 474.145Z" fill="#EAEAEA"></path><path opacity="0.5" d="M113.7 485.323C113.879 485.278 114.028 485.218 114.208 485.173C116.748 484.411 119.348 483.724 121.948 483.036C100.191 467.316 63.9092 456.976 22.8456 456.976C-18.2181 456.976 -51.3918 466.494 -73.418 481.139C-70.4891 481.781 -67.5901 482.424 -64.6912 483.111C-44.3386 470.081 -12.719 461.668 22.8456 461.668C60.3826 461.668 93.5563 471.037 113.7 485.323Z" fill="#EAEAEA"></path><path opacity="0.5" d="M61.7568 508.469C63.7891 507.064 65.9409 505.734 68.1823 504.449C59.2464 496.544 42.3009 491.18 22.8748 491.18C4.64425 491.18 -11.4046 495.902 -20.6992 503.03C-18.7566 504.509 -16.9037 506.018 -15.1404 507.557C-8.08728 500.624 6.28802 495.857 22.9048 495.857C39.5215 495.857 55.1221 501.042 61.8166 508.454L61.7568 508.469Z" fill="#EAEAEA"></path><path opacity="0.5" d="M523.886 472.95C527.532 472.546 531.178 472.188 534.854 471.889C502.249 446.246 444.957 429.196 379.835 429.196C314.713 429.196 256.225 446.62 223.799 472.696C227.535 472.95 231.151 473.323 234.677 473.786C265.669 450.057 319.076 434.307 379.835 434.307C440.593 434.307 492.775 449.698 523.916 472.95H523.886Z" fill="#EAEAEA"></path><path opacity="0.5" d="M468.627 483.963C471.347 483.156 474.066 482.394 476.846 481.662C454.909 466.733 419.643 456.976 379.805 456.976C342.507 456.976 309.124 465.493 286.979 478.852C289.818 479.57 292.567 480.377 295.257 481.243C315.669 469.274 345.974 461.653 379.805 461.653C416.117 461.653 448.334 470.454 468.627 483.963Z" fill="#EAEAEA"></path><path opacity="0.5" d="M416.446 506.303C418.538 505.033 420.66 503.792 422.842 502.597C413.457 495.723 397.677 491.195 379.805 491.195C361.934 491.195 345.347 495.977 336.082 503.165C338.025 504.659 339.907 506.153 341.701 507.663C348.724 500.684 363.159 495.873 379.805 495.873C395.376 495.873 408.974 500.071 416.446 506.303Z" fill="#EAEAEA"></path><path opacity="0.5" d="M880.937 473.024C884.584 472.635 888.289 472.306 891.995 472.037C859.419 446.305 802.038 429.181 736.766 429.181C671.495 429.181 615.369 445.932 582.613 471.186C586.409 471.38 590.204 471.634 593.94 471.963C625.231 449.234 677.532 434.291 736.766 434.291C796.001 434.291 849.826 449.713 880.937 473.024Z" fill="#EAEAEA"></path><path opacity="0.5" d="M825.558 483.962C828.278 483.155 831.027 482.393 833.807 481.661C811.87 466.717 776.575 456.975 736.766 456.975C696.958 456.975 664.322 466 642.236 479.987C645.016 480.704 647.795 481.451 650.515 482.258C670.897 469.706 701.979 461.652 736.766 461.652C771.554 461.652 805.295 470.453 825.588 483.962H825.558Z" fill="#EAEAEA"></path><path opacity="0.5" d="M773.497 506.392C775.559 505.122 777.681 503.867 779.892 502.657C770.538 495.753 754.698 491.195 736.766 491.195C719.97 491.195 705.057 495.2 695.523 501.401C697.556 502.627 699.558 503.897 701.501 505.212C709.211 499.593 722.122 495.887 736.766 495.887C752.397 495.887 766.055 500.116 773.497 506.407V506.392Z" fill="#EAEAEA"></path><path opacity="0.5" d="M1238.08 473.174C1241.72 472.77 1245.37 472.412 1249.04 472.128C1216.5 446.351 1159.06 429.196 1093.69 429.196C1028.33 429.196 971.311 446.231 938.705 471.844C942.471 472.083 946.207 472.367 949.912 472.726C981.084 449.594 1033.83 434.292 1093.69 434.292C1153.56 434.292 1206.96 449.788 1238.08 473.174Z" fill="#EAEAEA"></path><path opacity="0.5" d="M1182.94 484.247C1185.63 483.44 1188.38 482.663 1191.12 481.931C1169.22 466.838 1133.74 456.976 1093.7 456.976C1053.65 456.976 1019.64 466.45 997.611 481.019C1000.39 481.751 1003.14 482.513 1005.86 483.32C1026.21 470.185 1057.95 461.668 1093.7 461.668C1129.44 461.668 1162.67 470.589 1182.94 484.262V484.247Z" fill="#EAEAEA"></path><path opacity="0.5" d="M1131.05 506.886C1133.12 505.6 1135.24 504.345 1137.42 503.12C1128.12 495.947 1112.05 491.195 1093.73 491.195C1075.4 491.195 1060.43 495.633 1051.02 502.373C1053.14 503.628 1055.2 504.898 1057.2 506.198C1064.71 500.012 1078.24 495.873 1093.7 495.873C1109.15 495.873 1123.73 500.326 1131.02 506.886H1131.05Z" fill="#EAEAEA"></path><path opacity="0.5" d="M1593.96 472.352C1597.64 471.963 1601.34 471.649 1605.05 471.38C1572.32 446.022 1515.36 429.211 1450.66 429.211C1385.95 429.211 1328.39 446.201 1295.79 471.769C1299.58 471.993 1303.32 472.277 1307.02 472.621C1338.23 449.549 1390.89 434.307 1450.66 434.307C1510.43 434.307 1562.73 449.429 1593.96 472.352Z" fill="#EAEAEA"></path><path opacity="0.5" d="M1538.43 483.275C1541.15 482.483 1543.9 481.706 1546.68 480.989C1524.66 466.435 1489.87 456.976 1450.66 456.976C1411.45 456.976 1377.02 466.33 1354.99 480.75C1357.8 481.467 1360.55 482.229 1363.27 483.021C1383.62 470.051 1415.18 461.668 1450.66 461.668C1486.13 461.668 1518.11 470.17 1538.46 483.29L1538.43 483.275Z" fill="#EAEAEA"></path><path opacity="0.5" d="M1486.46 505.629C1488.49 504.374 1490.58 503.163 1492.74 501.968C1483.26 495.453 1467.96 491.209 1450.66 491.209C1433.35 491.209 1418.11 495.453 1408.64 501.938C1410.76 503.163 1412.79 504.419 1414.79 505.704C1422.38 499.801 1435.62 495.886 1450.69 495.886C1465.75 495.886 1478.87 499.771 1486.49 505.644L1486.46 505.629Z" fill="#EAEAEA"></path><path opacity="0.5" d="M343.914 433.306C347.56 432.903 351.206 432.544 354.882 432.245C322.276 406.603 264.984 389.553 199.862 389.553C134.74 389.553 76.2527 406.976 43.8262 433.052C47.5619 433.306 51.1782 433.68 54.7048 434.143C85.6968 410.413 139.074 394.663 199.862 394.663C260.651 394.663 312.802 410.055 343.943 433.306H343.914Z" fill="#EAEAEA"></path><path opacity="0.5" d="M288.654 444.334C291.374 443.527 294.094 442.765 296.873 442.033C274.936 427.105 239.671 417.347 199.832 417.347C162.534 417.347 129.152 425.864 107.006 439.223C109.845 439.941 112.595 440.748 115.284 441.614C135.697 429.645 166.001 422.024 199.832 422.024C236.144 422.024 268.361 430.825 288.654 444.334Z" fill="#EAEAEA"></path><path opacity="0.5" d="M236.473 466.674C238.565 465.404 240.687 464.163 242.869 462.968C233.485 456.094 217.705 451.566 199.833 451.566C181.961 451.566 165.374 456.348 156.109 463.536C158.052 465.03 159.935 466.524 161.728 468.034C168.751 461.055 183.186 456.244 199.833 456.244C215.404 456.244 229.002 460.443 236.473 466.674Z" fill="#EAEAEA"></path><path opacity="0.5" d="M700.994 433.396C704.64 433.007 708.346 432.679 712.052 432.41C679.476 406.678 622.094 389.553 556.823 389.553C491.551 389.553 435.425 406.304 402.67 431.558C406.465 431.752 410.261 432.006 413.997 432.335C445.288 409.606 497.588 394.663 556.823 394.663C616.057 394.663 669.882 410.085 700.994 433.396Z" fill="#EAEAEA"></path><path opacity="0.5" d="M645.615 444.319C648.335 443.512 651.084 442.75 653.864 442.018C631.927 427.075 596.632 417.332 556.823 417.332C517.015 417.332 484.379 426.358 462.293 440.344C465.072 441.062 467.852 441.809 470.572 442.616C490.954 430.064 522.036 422.009 556.823 422.009C591.611 422.009 625.352 430.811 645.645 444.319H645.615Z" fill="#EAEAEA"></path><path opacity="0.5" d="M593.524 466.748C595.586 465.478 597.708 464.223 599.92 463.012C590.565 456.108 574.725 451.551 556.794 451.551C539.998 451.551 525.084 455.556 515.551 461.757C517.583 462.982 519.585 464.252 521.528 465.567C529.239 459.949 542.149 456.243 556.794 456.243C572.424 456.243 586.082 460.472 593.524 466.763V466.748Z" fill="#EAEAEA"></path><path opacity="0.5" d="M1058.1 433.545C1061.75 433.142 1065.4 432.783 1069.07 432.499C1036.53 406.722 979.085 389.553 913.724 389.553C848.363 389.553 791.34 406.588 758.734 432.2C762.5 432.439 766.236 432.723 769.942 433.082C801.113 409.95 853.862 394.648 913.724 394.648C973.586 394.648 1026.99 410.144 1058.1 433.53V433.545Z" fill="#EAEAEA"></path><path opacity="0.5" d="M1002.99 444.603C1005.68 443.796 1008.43 443.019 1011.21 442.287C989.306 427.194 953.831 417.332 913.783 417.332C873.736 417.332 839.725 426.806 817.699 441.375C820.479 442.108 823.228 442.87 825.948 443.677C846.3 430.542 878.039 422.024 913.783 422.024C949.527 422.024 982.761 430.945 1003.02 444.618L1002.99 444.603Z" fill="#EAEAEA"></path><path opacity="0.5" d="M951.082 467.257C953.144 465.972 955.266 464.716 957.448 463.491C948.153 456.318 932.074 451.566 913.754 451.566C895.434 451.566 880.461 456.004 871.047 462.744C873.169 463.999 875.231 465.269 877.233 466.569C884.735 460.383 898.273 456.244 913.724 456.244C929.176 456.244 943.76 460.697 951.052 467.257H951.082Z" fill="#EAEAEA"></path><path opacity="0.5" d="M1413.99 432.708C1417.67 432.32 1421.37 432.006 1425.08 431.737C1392.35 406.378 1335.39 389.567 1270.68 389.567C1205.98 389.567 1148.42 406.558 1115.81 432.125C1119.61 432.35 1123.35 432.633 1127.05 432.977C1158.25 409.905 1210.91 394.663 1270.68 394.663C1330.46 394.663 1382.76 409.785 1413.99 432.708Z" fill="#EAEAEA"></path><path opacity="0.5" d="M1358.49 443.647C1361.21 442.855 1363.96 442.078 1366.74 441.346C1344.71 426.791 1309.93 417.332 1270.71 417.332C1231.5 417.332 1197.07 426.686 1175.05 441.107C1177.86 441.824 1180.61 442.586 1183.33 443.378C1203.68 430.407 1235.24 422.024 1270.71 422.024C1306.19 422.024 1338.17 430.527 1358.52 443.647H1358.49Z" fill="#EAEAEA"></path><path opacity="0.5" d="M1306.49 465.986C1308.52 464.731 1310.61 463.521 1312.76 462.325C1303.29 455.81 1287.99 451.566 1270.68 451.566C1253.38 451.566 1238.14 455.81 1228.66 462.296C1230.79 463.521 1232.82 464.776 1234.82 466.061C1242.41 460.159 1255.65 456.244 1270.71 456.244C1285.78 456.244 1298.9 460.129 1306.52 466.001L1306.49 465.986Z" fill="#EAEAEA"></path><path opacity="0.5" d="M168.481 394.873C172.037 394.515 175.713 394.186 179.479 393.917C147.172 367.557 89.0729 349.939 22.8749 349.939C-43.323 349.939 -100.465 367.273 -132.922 393.245C-131.517 393.334 -130.142 393.424 -128.857 393.573C-126.168 393.274 -123.358 393.155 -120.459 393.11C-89.2282 370.172 -36.6883 355.035 22.8749 355.035C82.4381 355.035 137.578 370.964 168.481 394.873Z" fill="#EAEAEA"></path><path opacity="0.5" d="M113.7 406.037C113.879 405.992 114.028 405.932 114.208 405.887C116.748 405.125 119.348 404.438 121.948 403.75C100.191 388.03 63.9092 377.689 22.8456 377.689C-18.2181 377.689 -51.3918 387.208 -73.418 401.852C-70.4891 402.495 -67.5901 403.138 -64.6912 403.825C-44.3386 390.795 -12.719 382.382 22.8456 382.382C60.3826 382.382 93.5563 391.751 113.7 406.037Z" fill="#EAEAEA"></path><path opacity="0.5" d="M61.7568 429.197C63.7891 427.793 65.9409 426.463 68.1823 425.178C59.2464 417.273 42.3009 411.908 22.8748 411.908C4.64425 411.908 -11.4046 416.63 -20.6992 423.758C-18.7566 425.237 -16.9037 426.747 -15.1404 428.286C-8.08728 421.352 6.28802 416.585 22.9048 416.585C39.5215 416.585 55.1221 421.771 61.8166 429.182L61.7568 429.197Z" fill="#EAEAEA"></path><path opacity="0.5" d="M523.886 393.662C527.532 393.258 531.178 392.899 534.854 392.601C502.249 366.958 444.957 349.908 379.835 349.908C314.713 349.908 256.225 367.332 223.799 393.408C227.535 393.662 231.151 394.035 234.677 394.498C265.669 370.769 319.076 355.019 379.835 355.019C440.593 355.019 492.775 370.41 523.916 393.662H523.886Z" fill="#EAEAEA"></path><path opacity="0.5" d="M468.627 404.689C471.347 403.882 474.066 403.12 476.846 402.388C454.909 387.46 419.643 377.702 379.805 377.702C342.507 377.702 309.124 386.22 286.979 399.579C289.818 400.296 292.567 401.103 295.257 401.97C315.669 390 345.974 382.379 379.805 382.379C416.117 382.379 448.334 391.181 468.627 404.689Z" fill="#EAEAEA"></path><path opacity="0.5" d="M416.446 427.029C418.538 425.759 420.66 424.519 422.842 423.323C413.457 416.45 397.677 411.922 379.805 411.922C361.934 411.922 345.347 416.704 336.082 423.891C338.025 425.386 339.907 426.88 341.701 428.389C348.724 421.411 363.159 416.599 379.805 416.599C395.376 416.599 408.974 420.798 416.446 427.029Z" fill="#EAEAEA"></path><path opacity="0.5" d="M880.937 393.751C884.584 393.363 888.289 393.034 891.995 392.765C859.419 367.033 802.038 349.908 736.766 349.908C671.495 349.908 615.369 366.659 582.613 391.913C586.409 392.108 590.204 392.362 593.94 392.69C625.231 369.962 677.532 355.019 736.766 355.019C796.001 355.019 849.826 370.44 880.937 393.751Z" fill="#EAEAEA"></path><path opacity="0.5" d="M825.558 404.689C828.278 403.882 831.027 403.12 833.807 402.388C811.87 387.445 776.575 377.702 736.766 377.702C696.958 377.702 664.322 386.728 642.236 400.715C645.016 401.432 647.795 402.179 650.515 402.986C670.897 390.434 701.979 382.379 736.766 382.379C771.554 382.379 805.295 391.181 825.588 404.689H825.558Z" fill="#EAEAEA"></path><path opacity="0.5" d="M773.497 427.119C775.559 425.849 777.681 424.594 779.892 423.383C770.538 416.479 754.698 411.922 736.766 411.922C719.97 411.922 705.057 415.927 695.523 422.128C697.556 423.353 699.558 424.623 701.501 425.938C709.211 420.32 722.122 416.614 736.766 416.614C752.397 416.614 766.055 420.843 773.497 427.134V427.119Z" fill="#EAEAEA"></path><path opacity="0.5" d="M1238.08 393.901C1241.72 393.497 1245.37 393.139 1249.04 392.855C1216.5 367.078 1159.06 349.908 1093.69 349.908C1028.33 349.908 971.311 366.943 938.705 392.556C942.471 392.795 946.207 393.079 949.912 393.437C981.084 370.306 1033.83 355.004 1093.69 355.004C1153.56 355.004 1206.96 370.5 1238.08 393.886V393.901Z" fill="#EAEAEA"></path><path opacity="0.5" d="M1182.94 404.973C1185.63 404.166 1188.38 403.389 1191.12 402.657C1169.22 387.565 1133.74 377.702 1093.7 377.702C1053.65 377.702 1019.64 387.176 997.611 401.746C1000.39 402.478 1003.14 403.24 1005.86 404.047C1026.21 390.912 1057.95 382.394 1093.7 382.394C1129.44 382.394 1162.67 391.315 1182.94 404.988V404.973Z" fill="#EAEAEA"></path><path opacity="0.5" d="M1131.05 427.612C1133.12 426.327 1135.24 425.072 1137.42 423.846C1128.12 416.674 1112.05 411.922 1093.73 411.922C1075.4 411.922 1060.43 416.36 1051.02 423.099C1053.14 424.355 1055.2 425.625 1057.2 426.925C1064.71 420.738 1078.24 416.584 1093.7 416.584C1109.15 416.584 1123.73 421.037 1131.02 427.597L1131.05 427.612Z" fill="#EAEAEA"></path><path opacity="0.5" d="M1593.96 393.064C1597.64 392.675 1601.34 392.361 1605.05 392.092C1572.32 366.734 1515.36 349.923 1450.66 349.923C1385.95 349.923 1328.39 366.913 1295.79 392.481C1299.58 392.705 1303.32 392.989 1307.02 393.333C1338.23 370.26 1390.89 355.018 1450.66 355.018C1510.43 355.018 1562.73 370.141 1593.96 393.064Z" fill="#EAEAEA"></path><path opacity="0.5" d="M1538.43 404.002C1541.15 403.21 1543.9 402.433 1546.68 401.701C1524.66 387.146 1489.87 377.688 1450.66 377.688C1411.45 377.688 1377.02 387.042 1354.99 401.462C1357.8 402.179 1360.55 402.941 1363.27 403.733C1383.62 390.763 1415.18 382.38 1450.66 382.38C1486.13 382.38 1518.11 390.882 1538.46 404.002H1538.43Z" fill="#EAEAEA"></path><path opacity="0.5" d="M1486.46 426.358C1488.49 425.102 1490.58 423.892 1492.74 422.697C1483.26 416.181 1467.96 411.938 1450.66 411.938C1433.35 411.938 1418.11 416.181 1408.64 422.667C1410.76 423.892 1412.79 425.147 1414.79 426.432C1422.38 420.53 1435.62 416.615 1450.69 416.615C1465.75 416.615 1478.87 420.5 1486.49 426.373L1486.46 426.358Z" fill="#EAEAEA"></path><path opacity="0.5" d="M343.914 354.032C347.56 353.628 351.206 353.27 354.882 352.971C322.276 327.328 264.984 310.278 199.862 310.278C134.74 310.278 76.2527 327.702 43.8262 353.778C47.5619 354.032 51.1782 354.405 54.7048 354.869C85.6968 331.154 139.074 315.389 199.862 315.389C260.651 315.389 312.802 330.78 343.943 354.032H343.914Z" fill="#EAEAEA"></path><path opacity="0.5" d="M288.654 365.045C291.374 364.238 294.094 363.476 296.873 362.744C274.936 347.815 239.671 338.058 199.832 338.058C162.534 338.058 129.152 346.575 107.006 359.934C109.845 360.652 112.595 361.459 115.284 362.325C135.697 350.356 166.001 342.735 199.832 342.735C236.144 342.735 268.361 351.536 288.654 365.045Z" fill="#EAEAEA"></path><path opacity="0.5" d="M236.473 387.385C238.565 386.115 240.687 384.874 242.869 383.679C233.485 376.805 217.705 372.277 199.833 372.277C181.961 372.277 165.374 377.059 156.109 384.247C158.052 385.741 159.935 387.235 161.728 388.745C168.751 381.766 183.186 376.955 199.833 376.955C215.404 376.955 229.002 381.154 236.473 387.385Z" fill="#EAEAEA"></path><path opacity="0.5" d="M700.994 354.121C704.64 353.733 708.346 353.404 712.052 353.135C679.476 327.403 622.094 310.278 556.823 310.278C491.551 310.278 435.425 327.03 402.67 352.283C406.465 352.478 410.261 352.732 413.997 353.06C445.288 330.332 497.588 315.389 556.823 315.389C616.057 315.389 669.882 330.81 700.994 354.121Z" fill="#EAEAEA"></path><path opacity="0.5" d="M645.615 365.045C648.335 364.238 651.084 363.476 653.864 362.744C631.927 347.801 596.632 338.058 556.823 338.058C517.015 338.058 484.379 347.083 462.293 361.07C465.072 361.787 467.852 362.534 470.572 363.341C490.954 350.789 522.036 342.735 556.823 342.735C591.611 342.735 625.352 351.536 645.645 365.045H645.615Z" fill="#EAEAEA"></path><path opacity="0.5" d="M593.524 387.475C595.586 386.204 597.708 384.949 599.92 383.739C590.565 376.835 574.725 372.277 556.794 372.277C539.998 372.277 525.084 376.297 515.551 382.484C517.583 383.709 519.585 384.979 521.528 386.294C529.239 380.675 542.149 376.97 556.794 376.97C572.424 376.97 586.082 381.198 593.524 387.489V387.475Z" fill="#EAEAEA"></path><path opacity="0.5" d="M1058.1 354.256C1061.75 353.853 1065.4 353.494 1069.07 353.21C1036.53 327.433 979.085 310.264 913.724 310.264C848.363 310.264 791.34 327.299 758.734 352.911C762.5 353.15 766.236 353.434 769.942 353.793C801.113 330.661 853.862 315.359 913.724 315.359C973.586 315.359 1026.99 330.855 1058.1 354.241V354.256Z" fill="#EAEAEA"></path><path opacity="0.5" d="M1002.99 365.329C1005.68 364.522 1008.43 363.745 1011.21 363.013C989.306 347.92 953.831 338.058 913.783 338.058C873.736 338.058 839.725 347.532 817.699 362.101C820.479 362.833 823.228 363.595 825.948 364.402C846.3 351.267 878.039 342.75 913.783 342.75C949.527 342.75 982.761 351.671 1003.02 365.344L1002.99 365.329Z" fill="#EAEAEA"></path><path opacity="0.5" d="M951.082 387.968C953.144 386.682 955.266 385.427 957.448 384.202C948.153 377.029 932.074 372.277 913.754 372.277C895.434 372.277 880.461 376.715 871.047 383.455C873.169 384.71 875.231 385.98 877.233 387.28C884.735 381.094 898.273 376.94 913.724 376.94C929.176 376.94 943.76 381.393 951.052 387.953L951.082 387.968Z" fill="#EAEAEA"></path><path opacity="0.5" d="M1413.99 353.436C1417.67 353.047 1421.37 352.733 1425.08 352.464C1392.35 327.106 1335.39 310.295 1270.68 310.295C1205.98 310.295 1148.42 327.285 1115.81 352.853C1119.61 353.077 1123.35 353.361 1127.05 353.705C1158.25 330.632 1210.91 315.391 1270.68 315.391C1330.46 315.391 1382.76 330.513 1413.99 353.436Z" fill="#EAEAEA"></path><path opacity="0.5" d="M1358.49 364.374C1361.21 363.582 1363.96 362.805 1366.74 362.088C1344.71 347.533 1309.93 338.074 1270.71 338.074C1231.5 338.074 1197.07 347.429 1175.05 361.849C1177.86 362.566 1180.61 363.328 1183.33 364.12C1203.68 351.149 1235.24 342.766 1270.71 342.766C1306.19 342.766 1338.17 351.269 1358.52 364.389L1358.49 364.374Z" fill="#EAEAEA"></path><path opacity="0.5" d="M1306.49 386.713C1308.52 385.458 1310.61 384.247 1312.76 383.052C1303.29 376.537 1287.99 372.293 1270.68 372.293C1253.38 372.293 1238.14 376.537 1228.66 383.022C1230.79 384.247 1232.82 385.503 1234.82 386.788C1242.41 380.885 1255.65 376.97 1270.71 376.97C1285.78 376.97 1298.9 380.855 1306.52 386.728L1306.49 386.713Z" fill="#EAEAEA"></path><path opacity="0.5" d="M168.481 315.583C172.037 315.225 175.713 314.896 179.479 314.627C147.172 288.267 89.0729 270.649 22.8749 270.649C-43.323 270.649 -100.465 287.983 -132.922 313.955C-131.517 314.044 -130.142 314.134 -128.857 314.283C-126.168 313.984 -123.358 313.865 -120.459 313.82C-89.2282 290.882 -36.6883 275.745 22.8749 275.745C82.4381 275.745 137.578 291.674 168.481 315.583Z" fill="#EAEAEA"></path><path opacity="0.5" d="M113.7 326.761C113.879 326.716 114.028 326.657 114.208 326.612C116.748 325.85 119.348 325.162 121.948 324.475C100.191 308.755 63.9092 298.414 22.8456 298.414C-18.2181 298.414 -51.3918 307.933 -73.418 322.577C-70.4891 323.22 -67.5901 323.862 -64.6912 324.55C-44.3386 311.519 -12.719 303.106 22.8456 303.106C60.3826 303.106 93.5563 312.476 113.7 326.761Z" fill="#EAEAEA"></path><path opacity="0.5" d="M61.7568 349.922C63.7891 348.517 65.9409 347.187 68.1823 345.902C59.2464 337.997 42.3009 332.633 22.8748 332.633C4.64425 332.633 -11.4046 337.355 -20.6992 344.483C-18.7566 345.962 -16.9037 347.471 -15.1404 349.01C-8.08728 342.077 6.28802 337.31 22.9048 337.31C39.5215 337.31 55.1221 342.495 61.8166 349.907L61.7568 349.922Z" fill="#EAEAEA"></path><path opacity="0.5" d="M523.886 314.388C527.532 313.985 531.178 313.626 534.854 313.327C502.249 287.685 444.957 270.635 379.835 270.635C314.713 270.635 256.225 288.058 223.799 314.134C227.535 314.388 231.151 314.762 234.677 315.225C265.669 291.495 319.076 275.745 379.835 275.745C440.593 275.745 492.775 291.137 523.916 314.388H523.886Z" fill="#EAEAEA"></path><path opacity="0.5" d="M468.627 325.416C471.347 324.609 474.066 323.847 476.846 323.115C454.909 308.187 419.643 298.429 379.805 298.429C342.507 298.429 309.124 306.946 286.979 320.305C289.818 321.023 292.567 321.83 295.257 322.696C315.669 310.727 345.974 303.106 379.805 303.106C416.117 303.106 448.334 311.907 468.627 325.416Z" fill="#EAEAEA"></path><path opacity="0.5" d="M416.446 347.756C418.538 346.486 420.66 345.245 422.842 344.05C413.457 337.176 397.677 332.648 379.805 332.648C361.934 332.648 345.347 337.43 336.082 344.618C338.025 346.112 339.907 347.606 341.701 349.116C348.724 342.137 363.159 337.326 379.805 337.326C395.376 337.326 408.974 341.525 416.446 347.756Z" fill="#EAEAEA"></path><path opacity="0.5" d="M880.937 314.478C884.584 314.089 888.289 313.761 891.995 313.492C859.419 287.76 802.038 270.635 736.766 270.635C671.495 270.635 615.369 287.386 582.613 312.64C586.409 312.834 590.204 313.088 593.94 313.417C625.231 290.688 677.532 275.745 736.766 275.745C796.001 275.745 849.826 291.182 880.937 314.478Z" fill="#EAEAEA"></path><path opacity="0.5" d="M825.558 325.416C828.278 324.609 831.027 323.847 833.807 323.115C811.87 308.172 776.575 298.429 736.766 298.429C696.958 298.429 664.322 307.454 642.236 321.441C645.016 322.158 647.795 322.905 650.515 323.712C670.897 311.16 701.979 303.106 736.766 303.106C771.554 303.106 805.295 311.907 825.588 325.416H825.558Z" fill="#EAEAEA"></path><path opacity="0.5" d="M773.497 347.83C775.559 346.56 777.681 345.305 779.892 344.094C770.538 337.19 754.698 332.633 736.766 332.633C719.97 332.633 705.057 336.638 695.523 342.839C697.556 344.064 699.558 345.334 701.501 346.649C709.211 341.031 722.122 337.325 736.766 337.325C752.397 337.325 766.055 341.554 773.497 347.845V347.83Z" fill="#EAEAEA"></path><path opacity="0.5" d="M1238.08 314.627C1241.72 314.223 1245.37 313.865 1249.05 313.581C1216.5 287.804 1159.06 270.649 1093.7 270.649C1028.34 270.649 971.313 287.685 938.707 313.297C942.473 313.536 946.208 313.82 949.914 314.179C981.086 291.047 1033.83 275.745 1093.7 275.745C1153.56 275.745 1206.97 291.241 1238.08 314.627Z" fill="#EAEAEA"></path><path opacity="0.5" d="M1182.94 325.7C1185.63 324.893 1188.38 324.116 1191.13 323.384C1169.22 308.291 1133.75 298.429 1093.7 298.429C1053.65 298.429 1019.64 307.903 997.613 322.472C1000.39 323.204 1003.14 323.966 1005.86 324.773C1026.21 311.638 1057.95 303.121 1093.7 303.121C1129.44 303.121 1162.67 312.042 1182.94 325.715V325.7Z" fill="#EAEAEA"></path><path opacity="0.5" d="M1131.05 348.339C1133.12 347.054 1135.24 345.798 1137.42 344.573C1128.13 337.4 1112.05 332.648 1093.73 332.648C1075.41 332.648 1060.43 337.087 1051.02 343.826C1053.14 345.081 1055.2 346.351 1057.21 347.651C1064.71 341.465 1078.25 337.326 1093.7 337.326C1109.15 337.326 1123.73 341.779 1131.02 348.339H1131.05Z" fill="#EAEAEA"></path><path opacity="0.5" d="M1593.96 313.79C1597.64 313.402 1601.34 313.088 1605.05 312.819C1572.32 287.46 1515.36 270.649 1450.66 270.649C1385.95 270.649 1328.39 287.64 1295.79 313.207C1299.58 313.431 1303.32 313.715 1307.02 314.059C1338.23 290.987 1390.89 275.745 1450.66 275.745C1510.43 275.745 1562.73 290.867 1593.96 313.79Z" fill="#EAEAEA"></path><path opacity="0.5" d="M1538.43 324.729C1541.15 323.937 1543.9 323.16 1546.68 322.428C1524.66 307.873 1489.87 298.414 1450.66 298.414C1411.45 298.414 1377.02 307.768 1354.99 322.189C1357.8 322.906 1360.55 323.668 1363.27 324.46C1383.62 311.489 1415.18 303.106 1450.66 303.106C1486.13 303.106 1518.11 311.609 1538.46 324.729H1538.43Z" fill="#EAEAEA"></path><path opacity="0.5" d="M1486.46 347.069C1488.49 345.813 1490.58 344.603 1492.74 343.407C1483.26 336.892 1467.96 332.648 1450.66 332.648C1433.35 332.648 1418.11 336.892 1408.64 343.378C1410.76 344.603 1412.79 345.858 1414.79 347.143C1422.38 341.241 1435.62 337.326 1450.69 337.326C1465.75 337.326 1478.87 341.211 1486.49 347.083L1486.46 347.069Z" fill="#EAEAEA"></path><path opacity="0.5" d="M343.914 274.759C347.56 274.356 351.206 273.997 354.882 273.698C322.276 248.056 264.984 231.006 199.862 231.006C134.74 231.006 76.2527 248.429 43.8262 274.505C47.5619 274.759 51.1782 275.133 54.7048 275.596C85.6968 251.866 139.074 236.116 199.862 236.116C260.651 236.116 312.802 251.508 343.943 274.759H343.914Z" fill="#EAEAEA"></path><path opacity="0.5" d="M288.654 285.772C291.374 284.965 294.094 284.203 296.873 283.471C274.936 268.543 239.671 258.785 199.832 258.785C162.534 258.785 129.152 267.303 107.006 280.662C109.845 281.379 112.595 282.186 115.284 283.053C135.697 271.083 166.001 263.462 199.832 263.462C236.144 263.462 268.361 272.264 288.654 285.772Z" fill="#EAEAEA"></path><path opacity="0.5" d="M236.473 308.111C238.565 306.841 240.687 305.601 242.869 304.406C233.485 297.532 217.705 293.004 199.833 293.004C181.961 293.004 165.374 297.786 156.109 304.973C158.052 306.468 159.935 307.962 161.728 309.471C168.751 302.493 183.186 297.681 199.833 297.681C215.404 297.681 229.002 301.88 236.473 308.111Z" fill="#EAEAEA"></path><path opacity="0.5" d="M700.994 274.834C704.64 274.446 708.346 274.117 712.052 273.848C679.476 248.116 622.094 230.991 556.823 230.991C491.551 230.991 435.425 247.742 402.67 272.996C406.465 273.191 410.261 273.445 413.997 273.773C445.288 251.045 497.588 236.102 556.823 236.102C616.057 236.102 669.882 251.523 700.994 274.834Z" fill="#EAEAEA"></path><path opacity="0.5" d="M645.615 285.772C648.335 284.965 651.084 284.203 653.864 283.471C631.927 268.528 596.632 258.785 556.823 258.785C517.015 258.785 484.379 267.811 462.293 281.798C465.072 282.515 467.852 283.262 470.572 284.069C490.954 271.517 522.036 263.462 556.823 263.462C591.611 263.462 625.352 272.264 645.645 285.772H645.615Z" fill="#EAEAEA"></path><path opacity="0.5" d="M593.524 308.203C595.586 306.933 597.708 305.678 599.92 304.467C590.565 297.564 574.725 293.006 556.794 293.006C539.998 293.006 525.084 297.011 515.551 303.212C517.583 304.437 519.585 305.708 521.528 307.022C529.239 301.404 542.149 297.698 556.794 297.698C572.424 297.698 586.082 301.927 593.524 308.218V308.203Z" fill="#EAEAEA"></path><path opacity="0.5" d="M1058.1 274.983C1061.75 274.58 1065.4 274.221 1069.07 273.937C1036.53 248.161 979.085 231.006 913.724 231.006C848.363 231.006 791.34 248.041 758.734 273.653C762.5 273.893 766.236 274.177 769.942 274.535C801.113 251.403 853.862 236.101 913.724 236.101C973.586 236.101 1026.99 251.597 1058.1 274.983Z" fill="#EAEAEA"></path><path opacity="0.5" d="M1002.99 286.056C1005.68 285.249 1008.43 284.472 1011.21 283.74C989.306 268.648 953.831 258.785 913.783 258.785C873.736 258.785 839.725 268.259 817.699 282.829C820.479 283.561 823.228 284.323 825.948 285.13C846.3 271.995 878.039 263.477 913.783 263.477C949.527 263.477 982.761 272.398 1003.02 286.071L1002.99 286.056Z" fill="#EAEAEA"></path><path opacity="0.5" d="M951.082 308.694C953.144 307.409 955.266 306.154 957.448 304.929C948.153 297.756 932.074 293.004 913.754 293.004C895.434 293.004 880.461 297.442 871.047 304.181C873.169 305.437 875.231 306.707 877.233 308.007C884.735 301.82 898.273 297.681 913.724 297.681C929.176 297.681 943.76 302.134 951.052 308.694H951.082Z" fill="#EAEAEA"></path><path opacity="0.5" d="M1413.99 274.162C1417.67 273.774 1421.37 273.46 1425.08 273.191C1392.35 247.832 1335.39 231.021 1270.68 231.021C1205.98 231.021 1148.42 248.012 1115.81 273.579C1119.61 273.804 1123.35 274.088 1127.05 274.431C1158.25 251.359 1210.91 236.117 1270.68 236.117C1330.46 236.117 1382.76 251.24 1413.99 274.162Z" fill="#EAEAEA"></path><path opacity="0.5" d="M1358.49 285.085C1361.21 284.293 1363.96 283.516 1366.74 282.784C1344.71 268.23 1309.93 258.771 1270.71 258.771C1231.5 258.771 1197.07 268.125 1175.05 282.545C1177.86 283.262 1180.61 284.024 1183.33 284.816C1203.68 271.846 1235.24 263.463 1270.71 263.463C1306.19 263.463 1338.17 271.965 1358.52 285.085H1358.49Z" fill="#EAEAEA"></path><path opacity="0.5" d="M1306.49 307.44C1308.52 306.184 1310.61 304.974 1312.76 303.779C1303.29 297.263 1287.99 293.02 1270.68 293.02C1253.38 293.02 1238.14 297.263 1228.66 303.749C1230.79 304.974 1232.82 306.229 1234.82 307.514C1242.41 301.612 1255.65 297.697 1270.71 297.697C1285.78 297.697 1298.9 301.582 1306.52 307.455L1306.49 307.44Z" fill="#EAEAEA"></path><path opacity="0.5" d="M168.481 236.311C172.037 235.952 175.713 235.624 179.479 235.355C147.172 208.995 89.0729 191.377 22.8749 191.377C-43.323 191.377 -100.465 208.711 -132.922 234.682C-131.517 234.772 -130.142 234.861 -128.857 235.011C-126.168 234.712 -123.358 234.592 -120.459 234.548C-89.2282 211.61 -36.6883 196.473 22.8749 196.473C82.4381 196.473 137.578 212.402 168.481 236.311Z" fill="#EAEAEA"></path><path opacity="0.5" d="M113.7 247.489C113.879 247.444 114.028 247.384 114.208 247.339C116.748 246.577 119.348 245.89 121.948 245.202C100.191 229.482 63.9092 219.142 22.8456 219.142C-18.2181 219.142 -51.3918 228.66 -73.418 243.305C-70.4891 243.947 -67.5901 244.59 -64.6912 245.277C-44.3386 232.247 -12.719 223.834 22.8456 223.834C60.3826 223.834 93.5563 233.203 113.7 247.489Z" fill="#EAEAEA"></path><path opacity="0.5" d="M61.7568 270.635C63.7891 269.23 65.9409 267.9 68.1823 266.615C59.2464 258.71 42.3009 253.346 22.8748 253.346C4.64425 253.346 -11.4046 258.068 -20.6992 265.196C-18.7566 266.675 -16.9037 268.184 -15.1404 269.723C-8.08728 262.79 6.28802 258.023 22.9048 258.023C39.5215 258.023 55.1221 263.208 61.8166 270.62L61.7568 270.635Z" fill="#EAEAEA"></path><path opacity="0.5" d="M523.886 235.116C527.532 234.712 531.178 234.354 534.854 234.055C502.249 208.412 444.957 191.362 379.835 191.362C314.713 191.362 256.225 208.786 223.799 234.862C227.535 235.116 231.151 235.489 234.677 235.953C265.669 212.223 319.076 196.473 379.835 196.473C440.593 196.473 492.775 211.864 523.916 235.116H523.886Z" fill="#EAEAEA"></path><path opacity="0.5" d="M468.627 246.129C471.347 245.322 474.066 244.56 476.846 243.828C454.909 228.899 419.643 219.142 379.805 219.142C342.507 219.142 309.124 227.659 286.979 241.018C289.818 241.736 292.567 242.542 295.257 243.409C315.669 231.44 345.974 223.819 379.805 223.819C416.117 223.819 448.334 232.62 468.627 246.129Z" fill="#EAEAEA"></path><path opacity="0.5" d="M416.446 268.469C418.538 267.199 420.66 265.958 422.842 264.763C413.457 257.889 397.677 253.361 379.805 253.361C361.934 253.361 345.347 258.143 336.082 265.331C338.025 266.825 339.907 268.319 341.701 269.829C348.724 262.85 363.159 258.039 379.805 258.039C395.376 258.039 408.974 262.238 416.446 268.469Z" fill="#EAEAEA"></path><path opacity="0.5" d="M880.935 235.205C884.582 234.817 888.287 234.488 891.993 234.219C859.417 208.487 802.036 191.362 736.764 191.362C671.493 191.362 615.367 208.114 582.611 233.367C586.407 233.562 590.202 233.816 593.938 234.144C625.229 211.416 677.53 196.473 736.764 196.473C795.999 196.473 849.824 211.894 880.935 235.205Z" fill="#EAEAEA"></path><path opacity="0.5" d="M825.556 246.129C828.276 245.322 831.026 244.56 833.805 243.828C811.868 228.884 776.573 219.142 736.764 219.142C696.956 219.142 664.32 228.167 642.234 242.154C645.014 242.871 647.793 243.618 650.513 244.425C670.895 231.873 701.977 223.819 736.764 223.819C771.552 223.819 805.293 232.62 825.586 246.129H825.556Z" fill="#EAEAEA"></path><path opacity="0.5" d="M773.495 268.558C775.557 267.288 777.679 266.033 779.89 264.823C770.536 257.919 754.696 253.361 736.764 253.361C719.968 253.361 705.055 257.366 695.521 263.567C697.554 264.793 699.556 266.063 701.499 267.378C709.209 261.759 722.12 258.053 736.764 258.053C752.395 258.053 766.053 262.282 773.495 268.573V268.558Z" fill="#EAEAEA"></path><path opacity="0.5" d="M1238.08 235.34C1241.72 234.937 1245.37 234.578 1249.04 234.294C1216.5 208.517 1159.06 191.348 1093.69 191.348C1028.33 191.348 971.311 208.383 938.705 233.995C942.471 234.234 946.207 234.518 949.912 234.877C981.084 211.745 1033.83 196.443 1093.69 196.443C1153.56 196.443 1206.96 211.939 1238.08 235.325V235.34Z" fill="#EAEAEA"></path><path opacity="0.5" d="M1182.94 246.413C1185.63 245.606 1188.38 244.829 1191.12 244.097C1169.22 229.004 1133.74 219.142 1093.7 219.142C1053.65 219.142 1019.64 228.616 997.611 243.185C1000.39 243.917 1003.14 244.679 1005.86 245.471C1026.21 232.336 1057.95 223.819 1093.7 223.819C1129.44 223.819 1162.67 232.74 1182.94 246.413Z" fill="#EAEAEA"></path><path opacity="0.5" d="M1131.05 269.067C1133.12 267.782 1135.24 266.527 1137.42 265.302C1128.12 258.129 1112.05 253.377 1093.73 253.377C1075.4 253.377 1060.43 257.815 1051.02 264.554C1053.14 265.81 1055.2 267.08 1057.2 268.38C1064.71 262.193 1078.24 258.039 1093.7 258.039C1109.15 258.039 1123.73 262.492 1131.02 269.052L1131.05 269.067Z" fill="#EAEAEA"></path><path opacity="0.5" d="M1593.96 234.518C1597.64 234.129 1601.34 233.815 1605.05 233.546C1572.32 208.188 1515.36 191.377 1450.66 191.377C1385.95 191.377 1328.39 208.367 1295.79 233.935C1299.58 234.159 1303.32 234.443 1307.02 234.787C1338.23 211.715 1390.89 196.473 1450.66 196.473C1510.43 196.473 1562.73 211.595 1593.96 234.518Z" fill="#EAEAEA"></path><path opacity="0.5" d="M1538.43 245.456C1541.15 244.664 1543.9 243.887 1546.68 243.17C1524.66 228.615 1489.87 219.156 1450.66 219.156C1411.45 219.156 1377.02 228.511 1354.99 242.931C1357.8 243.648 1360.55 244.41 1363.27 245.202C1383.62 232.231 1415.18 223.848 1450.66 223.848C1486.13 223.848 1518.11 232.351 1538.46 245.471L1538.43 245.456Z" fill="#EAEAEA"></path><path opacity="0.5" d="M1486.46 267.795C1488.49 266.54 1490.58 265.329 1492.74 264.134C1483.26 257.619 1467.96 253.375 1450.66 253.375C1433.35 253.375 1418.11 257.619 1408.64 264.104C1410.76 265.329 1412.79 266.585 1414.79 267.87C1422.38 261.967 1435.62 258.052 1450.69 258.052C1465.75 258.052 1478.87 261.937 1486.49 267.81L1486.46 267.795Z" fill="#EAEAEA"></path><path opacity="0.5" d="M343.914 195.472C347.56 195.069 351.206 194.71 354.882 194.411C322.276 168.769 264.984 151.719 199.862 151.719C134.74 151.719 76.2527 169.142 43.8262 195.218C47.5619 195.472 51.1782 195.846 54.7048 196.309C85.6968 172.579 139.074 156.829 199.862 156.829C260.651 156.829 312.802 172.221 343.943 195.472H343.914Z" fill="#EAEAEA"></path><path opacity="0.5" d="M288.654 206.5C291.374 205.693 294.094 204.931 296.873 204.199C274.936 189.271 239.671 179.513 199.832 179.513C162.534 179.513 129.152 188.03 107.006 201.389C109.845 202.107 112.595 202.914 115.284 203.78C135.697 191.811 166.001 184.19 199.832 184.19C236.144 184.19 268.361 192.991 288.654 206.5Z" fill="#EAEAEA"></path><path opacity="0.5" d="M236.473 228.84C238.565 227.57 240.687 226.329 242.869 225.134C233.485 218.26 217.705 213.732 199.833 213.732C181.961 213.732 165.374 218.514 156.109 225.702C158.052 227.196 159.935 228.69 161.728 230.2C168.751 223.221 183.186 218.41 199.833 218.41C215.404 218.41 229.002 222.609 236.473 228.84Z" fill="#EAEAEA"></path><path opacity="0.5" d="M700.994 195.562C704.64 195.173 708.346 194.845 712.052 194.576C679.476 168.844 622.094 151.719 556.823 151.719C491.551 151.719 435.425 168.47 402.67 193.724C406.465 193.918 410.261 194.172 413.997 194.501C445.288 171.772 497.588 156.829 556.823 156.829C616.057 156.829 669.882 172.251 700.994 195.562Z" fill="#EAEAEA"></path><path opacity="0.5" d="M645.615 206.5C648.335 205.693 651.084 204.931 653.864 204.199C631.927 189.256 596.632 179.513 556.823 179.513C517.015 179.513 484.379 188.538 462.293 202.525C465.072 203.242 467.852 203.99 470.572 204.796C490.954 192.244 522.036 184.19 556.823 184.19C591.611 184.19 625.352 192.991 645.645 206.5H645.615Z" fill="#EAEAEA"></path><path opacity="0.5" d="M593.524 228.93C595.586 227.659 597.708 226.404 599.92 225.194C590.565 218.29 574.725 213.732 556.794 213.732C539.998 213.732 525.084 217.752 515.551 223.939C517.583 225.164 519.585 226.434 521.528 227.749C529.239 222.13 542.149 218.425 556.794 218.425C572.424 218.425 586.082 222.653 593.524 228.944V228.93Z" fill="#EAEAEA"></path><path opacity="0.5" d="M1058.1 195.711C1061.75 195.308 1065.4 194.949 1069.07 194.665C1036.53 168.888 979.085 151.719 913.724 151.719C848.363 151.719 791.34 168.754 758.734 194.366C762.5 194.605 766.236 194.889 769.942 195.248C801.113 172.116 853.862 156.814 913.724 156.814C973.586 156.814 1026.99 172.31 1058.1 195.696V195.711Z" fill="#EAEAEA"></path><path opacity="0.5" d="M1002.99 206.784C1005.68 205.977 1008.43 205.2 1011.21 204.468C989.306 189.375 953.831 179.513 913.783 179.513C873.736 179.513 839.725 188.987 817.699 203.556C820.479 204.288 823.228 205.05 825.948 205.857C846.3 192.722 878.039 184.205 913.783 184.205C949.527 184.205 982.761 193.126 1003.02 206.799L1002.99 206.784Z" fill="#EAEAEA"></path><path opacity="0.5" d="M951.082 229.423C953.144 228.138 955.266 226.882 957.448 225.657C948.153 218.484 932.074 213.732 913.754 213.732C895.434 213.732 880.461 218.17 871.047 224.91C873.169 226.165 875.231 227.435 877.233 228.735C884.735 222.549 898.273 218.395 913.724 218.395C929.176 218.395 943.76 222.848 951.052 229.408L951.082 229.423Z" fill="#EAEAEA"></path><path opacity="0.5" d="M1413.99 194.874C1417.67 194.486 1421.37 194.172 1425.08 193.903C1392.35 168.544 1335.39 151.733 1270.68 151.733C1205.98 151.733 1148.42 168.724 1115.81 194.291C1119.61 194.516 1123.35 194.799 1127.05 195.143C1158.25 172.071 1210.91 156.829 1270.68 156.829C1330.46 156.829 1382.76 171.951 1413.99 194.874Z" fill="#EAEAEA"></path><path opacity="0.5" d="M1358.49 205.813C1361.21 205.021 1363.96 204.244 1366.74 203.526C1344.71 188.972 1309.93 179.513 1270.71 179.513C1231.5 179.513 1197.07 188.867 1175.05 203.287C1177.86 204.004 1180.61 204.767 1183.33 205.559C1203.68 192.588 1235.24 184.205 1270.71 184.205C1306.19 184.205 1338.17 192.707 1358.52 205.828L1358.49 205.813Z" fill="#EAEAEA"></path><path opacity="0.5" d="M1306.49 228.153C1308.52 226.897 1310.61 225.687 1312.76 224.491C1303.29 217.976 1287.99 213.732 1270.68 213.732C1253.38 213.732 1238.14 217.976 1228.66 224.477C1230.79 225.702 1232.82 226.957 1234.82 228.242C1242.41 222.34 1255.65 218.425 1270.71 218.425C1285.78 218.425 1298.9 222.31 1306.52 228.182L1306.49 228.153Z" fill="#EAEAEA"></path><path opacity="0.5" d="M168.481 157.037C172.037 156.679 175.713 156.35 179.479 156.081C147.172 129.721 89.0729 112.104 22.8749 112.104C-43.323 112.104 -100.465 129.438 -132.922 155.409C-131.517 155.498 -130.142 155.588 -128.857 155.737C-126.168 155.439 -123.358 155.319 -120.459 155.274C-89.2282 132.337 -36.6883 117.199 22.8749 117.199C82.4381 117.199 137.578 133.128 168.481 157.037Z" fill="#EAEAEA"></path><path opacity="0.5" d="M113.7 168.214C113.879 168.169 114.028 168.11 114.208 168.065C116.748 167.303 119.348 166.615 121.948 165.928C100.191 150.208 63.9092 139.867 22.8456 139.867C-18.2181 139.867 -51.3918 149.386 -73.418 164.03C-70.4891 164.673 -67.5901 165.315 -64.6912 166.003C-44.3386 152.972 -12.719 144.559 22.8456 144.559C60.3826 144.559 93.5563 153.929 113.7 168.214Z" fill="#EAEAEA"></path><path opacity="0.5" d="M61.7568 191.361C63.7891 189.957 65.9409 188.627 68.1823 187.342C59.2464 179.437 42.3009 174.072 22.8748 174.072C4.64425 174.072 -11.4046 178.794 -20.6992 185.922C-18.7566 187.402 -16.9037 188.911 -15.1404 190.45C-8.08728 183.516 6.28802 178.749 22.9048 178.749C39.5215 178.749 55.1221 183.935 61.8166 191.346L61.7568 191.361Z" fill="#EAEAEA"></path><path opacity="0.5" d="M523.886 155.842C527.532 155.439 531.178 155.08 534.854 154.781C502.249 129.139 444.957 112.089 379.835 112.089C314.713 112.089 256.225 129.513 223.799 155.588C227.535 155.842 231.151 156.216 234.677 156.679C265.669 132.949 319.076 117.199 379.835 117.199C440.593 117.199 492.775 132.591 523.916 155.842H523.886Z" fill="#EAEAEA"></path><path opacity="0.5" d="M468.627 166.855C471.347 166.049 474.066 165.286 476.846 164.554C454.909 149.626 419.643 139.868 379.805 139.868C342.507 139.868 309.124 148.386 286.979 161.745C289.818 162.462 292.567 163.269 295.257 164.136C315.669 152.166 345.974 144.545 379.805 144.545C416.117 144.545 448.334 153.347 468.627 166.855Z" fill="#EAEAEA"></path><path opacity="0.5" d="M416.446 189.195C418.538 187.925 420.66 186.685 422.842 185.489C413.457 178.616 397.677 174.088 379.805 174.088C361.934 174.088 345.347 178.87 336.082 186.057C338.025 187.552 339.907 189.046 341.701 190.555C348.724 183.577 363.159 178.765 379.805 178.765C395.376 178.765 408.974 182.964 416.446 189.195Z" fill="#EAEAEA"></path><path opacity="0.5" d="M880.937 155.916C884.584 155.528 888.289 155.199 891.995 154.93C859.419 129.198 802.038 112.073 736.766 112.073C671.495 112.073 615.369 128.824 582.613 154.078C586.409 154.273 590.204 154.527 593.94 154.855C625.231 132.127 677.532 117.184 736.766 117.184C796.001 117.184 849.826 132.62 880.937 155.916Z" fill="#EAEAEA"></path><path opacity="0.5" d="M825.558 166.854C828.278 166.048 831.027 165.285 833.807 164.553C811.87 149.61 776.575 139.867 736.766 139.867C696.958 139.867 664.322 148.893 642.236 162.88C645.016 163.597 647.795 164.344 650.515 165.151C670.897 152.599 701.979 144.544 736.766 144.544C771.554 144.544 805.295 153.346 825.588 166.854H825.558Z" fill="#EAEAEA"></path><path opacity="0.5" d="M773.497 189.284C775.559 188.014 777.681 186.759 779.892 185.548C770.538 178.645 754.698 174.087 736.766 174.087C719.97 174.087 705.057 178.092 695.523 184.293C697.556 185.518 699.558 186.789 701.501 188.104C709.211 182.485 722.122 178.779 736.766 178.779C752.397 178.779 766.055 183.008 773.497 189.299V189.284Z" fill="#EAEAEA"></path><path opacity="0.5" d="M1238.08 156.066C1241.72 155.663 1245.37 155.304 1249.04 155.02C1216.5 129.244 1159.06 112.089 1093.69 112.089C1028.33 112.089 971.311 129.124 938.705 154.736C942.471 154.976 946.207 155.26 949.912 155.618C981.084 132.486 1033.83 117.184 1093.69 117.184C1153.56 117.184 1206.96 132.681 1238.08 156.066Z" fill="#EAEAEA"></path><path opacity="0.5" d="M1182.94 167.139C1185.63 166.332 1188.38 165.555 1191.12 164.823C1169.22 149.731 1133.74 139.868 1093.7 139.868C1053.65 139.868 1019.64 149.342 997.611 163.912C1000.39 164.644 1003.14 165.406 1005.86 166.213C1026.21 153.078 1057.95 144.56 1093.7 144.56C1129.44 144.56 1162.67 153.481 1182.94 167.154V167.139Z" fill="#EAEAEA"></path><path opacity="0.5" d="M1131.05 189.778C1133.12 188.493 1135.24 187.238 1137.42 186.012C1128.12 178.84 1112.05 174.088 1093.73 174.088C1075.4 174.088 1060.43 178.526 1051.02 185.265C1053.14 186.521 1055.2 187.791 1057.2 189.091C1064.71 182.904 1078.24 178.765 1093.7 178.765C1109.15 178.765 1123.73 183.218 1131.02 189.778H1131.05Z" fill="#EAEAEA"></path><path opacity="0.5" d="M1593.96 155.244C1597.64 154.856 1601.34 154.542 1605.05 154.273C1572.32 128.915 1515.36 112.104 1450.66 112.104C1385.95 112.104 1328.39 129.094 1295.79 154.661C1299.58 154.886 1303.32 155.17 1307.02 155.513C1338.23 132.441 1390.89 117.199 1450.66 117.199C1510.43 117.199 1562.73 132.322 1593.96 155.244Z" fill="#EAEAEA"></path><path opacity="0.5" d="M1538.43 166.167C1541.15 165.375 1543.9 164.598 1546.68 163.881C1524.66 149.326 1489.87 139.867 1450.66 139.867C1411.45 139.867 1377.02 149.222 1354.99 163.642C1357.8 164.359 1360.55 165.121 1363.27 165.913C1383.62 152.942 1415.18 144.559 1450.66 144.559C1486.13 144.559 1518.11 153.062 1538.46 166.182L1538.43 166.167Z" fill="#EAEAEA"></path><path opacity="0.5" d="M1486.46 188.523C1488.49 187.267 1490.58 186.057 1492.74 184.862C1483.26 178.346 1467.96 174.103 1450.66 174.103C1433.35 174.103 1418.11 178.346 1408.64 184.832C1410.76 186.057 1412.79 187.312 1414.79 188.597C1422.38 182.695 1435.62 178.78 1450.69 178.78C1465.75 178.78 1478.87 182.665 1486.49 188.538L1486.46 188.523Z" fill="#EAEAEA"></path><path opacity="0.5" d="M343.914 116.199C347.56 115.795 351.206 115.437 354.882 115.138C322.276 89.4954 264.984 72.4453 199.862 72.4453C134.74 72.4453 76.2527 89.869 43.8262 115.945C47.5619 116.199 51.1782 116.572 54.7048 117.036C85.6968 93.3059 139.074 77.5559 199.862 77.5559C260.651 77.5559 312.802 92.9472 343.943 116.199H343.914Z" fill="#EAEAEA"></path><path opacity="0.5" d="M288.654 127.227C291.374 126.42 294.094 125.657 296.873 124.925C274.936 109.997 239.671 100.239 199.832 100.239C162.534 100.239 129.152 108.757 107.006 122.116C109.845 122.833 112.595 123.64 115.284 124.507C135.697 112.537 166.001 104.916 199.832 104.916C236.144 104.916 268.361 113.718 288.654 127.227Z" fill="#EAEAEA"></path><path opacity="0.5" d="M236.473 149.566C238.565 148.296 240.687 147.056 242.869 145.861C233.485 138.987 217.705 134.459 199.833 134.459C181.961 134.459 165.374 139.241 156.109 146.428C158.052 147.923 159.935 149.417 161.728 150.926C168.751 143.948 183.186 139.136 199.833 139.136C215.404 139.136 229.002 143.335 236.473 149.566Z" fill="#EAEAEA"></path><path opacity="0.5" d="M700.994 116.288C704.64 115.9 708.346 115.571 712.052 115.302C679.476 89.5701 622.094 72.4453 556.823 72.4453C491.551 72.4453 435.425 89.1965 402.67 114.45C406.465 114.645 410.261 114.899 413.997 115.227C445.288 92.4989 497.588 77.5559 556.823 77.5559C616.057 77.5559 669.882 92.9771 700.994 116.288Z" fill="#EAEAEA"></path><path opacity="0.5" d="M645.615 127.212C648.335 126.405 651.084 125.643 653.864 124.911C631.927 109.968 596.632 100.225 556.823 100.225C517.015 100.225 484.379 109.25 462.293 123.237C465.072 123.954 467.852 124.701 470.572 125.508C490.954 112.956 522.036 104.902 556.823 104.902C591.611 104.902 625.352 113.703 645.645 127.212H645.615Z" fill="#EAEAEA"></path><path opacity="0.5" d="M593.524 149.641C595.586 148.371 597.708 147.116 599.92 145.906C590.565 139.002 574.725 134.444 556.794 134.444C539.998 134.444 525.084 138.449 515.551 144.65C517.583 145.876 519.585 147.146 521.528 148.461C529.239 142.842 542.149 139.136 556.794 139.136C572.424 139.136 586.082 143.365 593.524 149.656V149.641Z" fill="#EAEAEA"></path><path opacity="0.5" d="M1058.1 116.438C1061.75 116.034 1065.4 115.676 1069.07 115.392C1036.53 89.6149 979.085 72.4453 913.724 72.4453C848.363 72.4453 791.34 89.4804 758.734 115.093C762.5 115.332 766.236 115.616 769.942 115.975C801.113 92.8426 853.862 77.5409 913.724 77.5409C973.586 77.5409 1026.99 93.0369 1058.1 116.423V116.438Z" fill="#EAEAEA"></path><path opacity="0.5" d="M1002.99 127.496C1005.68 126.689 1008.43 125.912 1011.21 125.18C989.306 110.087 953.831 100.225 913.783 100.225C873.736 100.225 839.725 109.699 817.699 124.268C820.479 125 823.228 125.762 825.948 126.569C846.3 113.434 878.039 104.917 913.783 104.917C949.527 104.917 982.761 113.838 1003.02 127.511L1002.99 127.496Z" fill="#EAEAEA"></path><path opacity="0.5" d="M951.082 150.149C953.144 148.864 955.266 147.609 957.448 146.384C948.153 139.211 932.074 134.459 913.754 134.459C895.434 134.459 880.461 138.897 871.047 145.636C873.169 146.892 875.231 148.162 877.233 149.462C884.735 143.275 898.273 139.136 913.724 139.136C929.176 139.136 943.76 143.589 951.052 150.149H951.082Z" fill="#EAEAEA"></path><path opacity="0.5" d="M1413.99 115.602C1417.67 115.213 1421.37 114.899 1425.08 114.63C1392.35 89.2719 1335.39 72.4609 1270.68 72.4609C1205.98 72.4609 1148.42 89.4513 1115.81 115.019C1119.61 115.243 1123.35 115.527 1127.05 115.871C1158.25 92.7985 1210.91 77.5565 1270.68 77.5565C1330.46 77.5565 1382.76 92.679 1413.99 115.602Z" fill="#EAEAEA"></path><path opacity="0.5" d="M1358.49 126.54C1361.21 125.748 1363.96 124.971 1366.74 124.254C1344.71 109.699 1309.93 100.24 1270.71 100.24C1231.5 100.24 1197.07 109.595 1175.05 124.015C1177.86 124.732 1180.61 125.494 1183.33 126.286C1203.68 113.315 1235.24 104.932 1270.71 104.932C1306.19 104.932 1338.17 113.435 1358.52 126.555L1358.49 126.54Z" fill="#EAEAEA"></path><path opacity="0.5" d="M1306.49 148.879C1308.52 147.624 1310.61 146.413 1312.76 145.218C1303.29 138.703 1287.99 134.459 1270.68 134.459C1253.38 134.459 1238.14 138.703 1228.66 145.188C1230.79 146.414 1232.82 147.669 1234.82 148.954C1242.41 143.051 1255.65 139.136 1270.71 139.136C1285.78 139.136 1298.9 143.021 1306.52 148.894L1306.49 148.879Z" fill="#EAEAEA"></path><path opacity="0.5" d="M168.481 77.766C172.037 77.4073 175.713 77.0786 179.479 76.8096C147.172 50.45 89.0729 32.832 22.8749 32.832C-43.323 32.832 -100.465 50.166 -132.922 76.1371C-131.517 76.2268 -130.142 76.3165 -128.857 76.4659C-126.168 76.167 -123.358 76.0475 -120.459 76.0027C-89.2282 53.065 -36.6883 37.9276 22.8749 37.9276C82.4381 37.9276 137.578 53.857 168.481 77.766Z" fill="#EAEAEA"></path><path opacity="0.5" d="M113.7 88.9291C113.879 88.8843 114.028 88.8245 114.208 88.7797C116.748 88.0176 119.348 87.3302 121.948 86.6428C100.191 70.9226 63.9092 60.582 22.8456 60.582C-18.2181 60.582 -51.3918 70.1008 -73.418 84.745C-70.4891 85.3876 -67.5901 86.0301 -64.6912 86.7175C-44.3386 73.6871 -12.719 65.2742 22.8456 65.2742C60.3826 65.2742 93.5563 74.6435 113.7 88.9291Z" fill="#EAEAEA"></path><path opacity="0.5" d="M61.7568 112.09C63.7891 110.685 65.9409 109.355 68.1823 108.07C59.2464 100.165 42.3009 94.8008 22.8748 94.8008C4.64425 94.8008 -11.4046 99.5228 -20.6992 106.651C-18.7566 108.13 -16.9037 109.639 -15.1404 111.178C-8.08728 104.245 6.28802 99.4779 22.9048 99.4779C39.5215 99.4779 55.1221 104.663 61.8166 112.075L61.7568 112.09Z" fill="#EAEAEA"></path><path opacity="0.5" d="M523.886 76.5562C527.532 76.1527 531.178 75.7941 534.854 75.4952C502.249 49.8528 444.957 32.8027 379.835 32.8027C314.713 32.8027 256.225 50.2264 223.799 76.3021C227.535 76.5561 231.151 76.9297 234.677 77.393C265.669 53.6633 319.076 37.9133 379.835 37.9133C440.593 37.9133 492.775 53.3047 523.916 76.5562H523.886Z" fill="#EAEAEA"></path><path opacity="0.5" d="M468.627 87.5839C471.347 86.777 474.066 86.0149 476.846 85.2827C454.909 70.3545 419.643 60.5967 379.805 60.5967C342.507 60.5967 309.124 69.1142 286.979 82.4734C289.818 83.1907 292.567 83.9976 295.257 84.8643C315.669 72.8948 345.974 65.2739 379.805 65.2739C416.117 65.2739 448.334 74.0754 468.627 87.5839Z" fill="#EAEAEA"></path><path opacity="0.5" d="M416.446 109.924C418.538 108.654 420.66 107.413 422.842 106.218C413.457 99.3442 397.677 94.8164 379.805 94.8164C361.934 94.8164 345.347 99.5982 336.082 106.786C338.025 108.28 339.907 109.774 341.701 111.284C348.724 104.305 363.159 99.4936 379.805 99.4936C395.376 99.4936 408.974 103.693 416.446 109.924Z" fill="#EAEAEA"></path><path opacity="0.5" d="M880.937 76.6458C884.584 76.2573 888.289 75.9285 891.995 75.6596C859.419 49.9275 802.038 32.8027 736.766 32.8027C671.495 32.8027 615.369 49.554 582.613 74.8078C586.409 75.0021 590.204 75.2561 593.94 75.5849C625.231 52.8564 677.532 37.9133 736.766 37.9133C796.001 37.9133 849.826 53.3346 880.937 76.6458Z" fill="#EAEAEA"></path><path opacity="0.5" d="M825.558 87.5839C828.278 86.777 831.027 86.0149 833.807 85.2827C811.87 70.3396 776.575 60.5967 736.766 60.5967C696.958 60.5967 664.322 69.6223 642.236 83.6091C645.016 84.3263 647.795 85.0735 650.515 85.8804C670.897 73.3282 701.979 65.2739 736.766 65.2739C771.554 65.2739 805.295 74.0754 825.588 87.5839H825.558Z" fill="#EAEAEA"></path><path opacity="0.5" d="M773.497 110.014C775.559 108.743 777.681 107.488 779.892 106.278C770.538 99.3741 754.698 94.8164 736.766 94.8164C719.97 94.8164 705.057 98.8212 695.523 105.023C697.556 106.248 699.558 107.518 701.501 108.833C709.211 103.214 722.122 99.5086 736.766 99.5086C752.397 99.5086 766.055 103.737 773.497 110.028V110.014Z" fill="#EAEAEA"></path><path opacity="0.5" d="M1238.08 76.7949C1241.72 76.3915 1245.37 76.0328 1249.04 75.7489C1216.5 49.9721 1159.06 32.8174 1093.69 32.8174C1028.33 32.8174 971.311 49.8525 938.705 75.465C942.471 75.7041 946.207 75.988 949.912 76.3467C981.084 53.2147 1033.83 37.913 1093.69 37.913C1153.56 37.913 1206.96 53.409 1238.08 76.7949Z" fill="#EAEAEA"></path><path opacity="0.5" d="M1182.94 87.8678C1185.63 87.0609 1188.38 86.2839 1191.12 85.5517C1169.22 70.4591 1133.74 60.5967 1093.7 60.5967C1053.65 60.5967 1019.64 70.0706 997.611 84.6401C1000.39 85.3723 1003.14 86.1344 1005.86 86.9264C1026.21 73.7914 1057.95 65.2739 1093.7 65.2739C1129.44 65.2739 1162.67 74.1949 1182.94 87.8678Z" fill="#EAEAEA"></path><path opacity="0.5" d="M1131.05 110.507C1133.12 109.222 1135.24 107.966 1137.42 106.741C1128.12 99.5683 1112.05 94.8164 1093.73 94.8164C1075.4 94.8164 1060.43 99.2545 1051.02 105.994C1053.14 107.249 1055.2 108.519 1057.2 109.819C1064.71 103.633 1078.24 99.4786 1093.7 99.4786C1109.15 99.4786 1123.73 103.932 1131.02 110.492L1131.05 110.507Z" fill="#EAEAEA"></path><path opacity="0.5" d="M1593.96 75.9581C1597.64 75.5696 1601.34 75.2558 1605.05 74.9868C1572.32 49.6284 1515.36 32.8174 1450.66 32.8174C1385.95 32.8174 1328.39 49.8077 1295.79 75.3753C1299.58 75.5995 1303.32 75.8834 1307.02 76.2271C1338.23 53.155 1390.89 37.913 1450.66 37.913C1510.43 37.913 1562.73 53.0354 1593.96 75.9581Z" fill="#EAEAEA"></path><path opacity="0.5" d="M1538.43 86.8966C1541.15 86.1046 1543.9 85.3275 1546.68 84.6103C1524.66 70.0557 1489.87 60.5967 1450.66 60.5967C1411.45 60.5967 1377.02 69.9511 1354.99 84.3712C1357.8 85.0884 1360.55 85.8505 1363.27 86.6425C1383.62 73.6719 1415.18 65.2888 1450.66 65.2888C1486.13 65.2888 1518.11 73.7915 1538.46 86.9115L1538.43 86.8966Z" fill="#EAEAEA"></path><path opacity="0.5" d="M1486.46 109.251C1488.49 107.996 1490.58 106.786 1492.74 105.59C1483.26 99.0749 1467.96 94.8311 1450.66 94.8311C1433.35 94.8311 1418.11 99.0749 1408.64 105.56C1410.76 106.786 1412.79 108.041 1414.79 109.326C1422.38 103.423 1435.62 99.5083 1450.69 99.5083C1465.75 99.5083 1478.87 103.393 1486.49 109.266L1486.46 109.251Z" fill="#EAEAEA"></path><path opacity="0.5" d="M343.914 36.9253C347.56 36.5218 351.206 36.1632 354.882 35.8643C322.276 10.2219 264.984 -6.82812 199.862 -6.82812C134.74 -6.82812 76.2527 10.5955 43.8262 36.6713C47.5619 36.9253 51.1782 37.2989 54.7048 37.7621C85.6968 14.0324 139.074 -1.71759 199.862 -1.71759C260.651 -1.71759 312.802 13.6738 343.943 36.9253H343.914Z" fill="#EAEAEA"></path><path opacity="0.5" d="M288.654 47.9384C291.374 47.1315 294.094 46.3694 296.873 45.6372C274.936 30.709 239.671 20.9512 199.832 20.9512C162.534 20.9512 129.152 29.4687 107.006 42.8279C109.845 43.5451 112.595 44.3521 115.284 45.2188C135.697 33.2494 166.001 25.6284 199.832 25.6284C236.144 25.6284 268.361 34.4298 288.654 47.9384Z" fill="#EAEAEA"></path><path opacity="0.5" d="M236.473 70.2784C238.565 69.0082 240.687 67.7679 242.869 66.5725C233.485 59.6987 217.705 55.1709 199.833 55.1709C181.961 55.1709 165.374 59.9527 156.109 67.1403C158.052 68.6347 159.935 70.129 161.728 71.6382C168.751 64.6598 183.186 59.8481 199.833 59.8481C215.404 59.8481 229.002 64.0471 236.473 70.2784Z" fill="#EAEAEA"></path><path opacity="0.5" d="M700.994 37.0149C704.64 36.6264 708.346 36.2977 712.052 36.0287C679.476 10.2967 622.094 -6.82812 556.823 -6.82812C491.551 -6.82812 435.425 9.9231 402.67 35.1769C406.465 35.3712 410.261 35.6252 413.997 35.954C445.288 13.2255 497.588 -1.71759 556.823 -1.71759C616.057 -1.71759 669.882 13.7037 700.994 37.0149Z" fill="#EAEAEA"></path><path opacity="0.5" d="M645.615 47.9384C648.335 47.1315 651.084 46.3694 653.864 45.6372C631.927 30.6941 596.632 20.9512 556.823 20.9512C517.015 20.9512 484.379 29.9768 462.293 43.9635C465.072 44.6808 467.852 45.428 470.572 46.2349C490.954 33.6827 522.036 25.6284 556.823 25.6284C591.611 25.6284 625.352 34.4298 645.645 47.9384H645.615Z" fill="#EAEAEA"></path><path opacity="0.5" d="M593.524 70.3681C595.586 69.0979 597.708 67.8427 599.92 66.6323C590.565 59.7286 574.725 55.1709 556.794 55.1709C539.998 55.1709 525.084 59.1906 515.551 65.377C517.583 66.6024 519.585 67.8725 521.528 69.1875C529.239 63.5689 542.149 59.863 556.794 59.863C572.424 59.863 586.082 64.0919 593.524 70.383V70.3681Z" fill="#EAEAEA"></path><path opacity="0.5" d="M1058.1 37.1488C1061.75 36.7453 1065.4 36.3867 1069.07 36.1027C1036.53 10.3259 979.085 -6.84375 913.724 -6.84375C848.363 -6.84375 791.34 10.1914 758.734 35.8039C762.5 36.043 766.236 36.3269 769.942 36.6855C801.113 13.5536 853.862 -1.74815 913.724 -1.74815C973.586 -1.74815 1026.99 13.7479 1058.1 37.1338V37.1488Z" fill="#EAEAEA"></path><path opacity="0.5" d="M1002.99 48.2214C1005.68 47.4144 1008.43 46.6374 1011.21 45.9052C989.306 30.8126 953.831 20.9502 913.783 20.9502C873.736 20.9502 839.725 30.4241 817.699 44.9936C820.479 45.7259 823.228 46.488 825.948 47.2949C846.3 34.1599 878.039 25.6423 913.783 25.6423C949.527 25.6423 982.761 34.5634 1003.02 48.2363L1002.99 48.2214Z" fill="#EAEAEA"></path><path opacity="0.5" d="M951.082 70.8602C953.144 69.5751 955.266 68.3199 957.448 67.0945C948.153 59.9218 932.074 55.1699 913.754 55.1699C895.434 55.1699 880.461 59.608 871.047 66.3474C873.169 67.6026 875.231 68.8728 877.233 70.1728C884.735 63.9864 898.273 59.8322 913.724 59.8322C929.176 59.8322 943.76 64.2852 951.052 70.8452L951.082 70.8602Z" fill="#EAEAEA"></path><path opacity="0.5" d="M1413.99 36.3273C1417.67 35.9387 1421.37 35.6249 1425.08 35.356C1392.35 9.99752 1335.39 -6.81348 1270.68 -6.81348C1205.98 -6.81348 1148.42 10.1768 1115.81 35.7445C1119.61 35.9686 1123.35 36.2526 1127.05 36.5962C1158.25 13.5241 1210.91 -1.71787 1270.68 -1.71787C1330.46 -1.71787 1382.76 13.4045 1413.99 36.3273Z" fill="#EAEAEA"></path><path opacity="0.5" d="M1358.49 47.2657C1361.21 46.4737 1363.96 45.6967 1366.74 44.9794C1344.71 30.4248 1309.93 20.9658 1270.71 20.9658C1231.5 20.9658 1197.07 30.3202 1175.05 44.7403C1177.86 45.4576 1180.61 46.2197 1183.33 47.0117C1203.68 34.041 1235.24 25.658 1270.71 25.658C1306.19 25.658 1338.17 34.1606 1358.52 47.2806L1358.49 47.2657Z" fill="#EAEAEA"></path><path opacity="0.5" d="M1306.49 69.6056C1308.52 68.3504 1310.61 67.14 1312.76 65.9446C1303.29 59.4294 1287.99 55.1855 1270.68 55.1855C1253.38 55.1855 1238.14 59.4294 1228.66 65.9296C1230.79 67.155 1232.82 68.4102 1234.82 69.6953C1242.41 63.7928 1255.65 59.8777 1270.71 59.8777C1285.78 59.8777 1298.9 63.7629 1306.52 69.6355L1306.49 69.6056Z" fill="#EAEAEA"></path><path opacity="0.5" d="M113.7 9.65371C113.879 9.60888 114.028 9.5491 114.208 9.50427C116.748 8.74217 119.348 8.0548 121.948 7.36742C100.191 -8.35273 63.9092 -18.6934 22.8456 -18.6934C-18.2181 -18.6934 -51.3918 -9.1746 -73.418 5.46964C-70.4891 6.11219 -67.5901 6.75476 -64.6912 7.44214C-44.3386 -5.58825 -12.719 -14.0012 22.8456 -14.0012C60.3826 -14.0012 93.5563 -4.6319 113.7 9.65371Z" fill="#EAEAEA"></path><path opacity="0.5" d="M61.7568 32.8156C63.7891 31.4109 65.9409 30.081 68.1823 28.7959C59.2464 20.8909 42.3009 15.5264 22.8748 15.5264C4.64425 15.5264 -11.4046 20.2484 -20.6992 27.3763C-18.7566 28.8556 -16.9037 30.3649 -15.1404 31.904C-8.08728 24.9704 6.28802 20.2036 22.9048 20.2036C39.5215 20.2036 55.1221 25.3888 61.8166 32.8006L61.7568 32.8156Z" fill="#EAEAEA"></path><path opacity="0.5" d="M468.627 8.30756C471.347 7.50063 474.066 6.73854 476.846 6.00633C454.909 -8.92183 419.643 -18.6797 379.805 -18.6797C342.507 -18.6797 309.124 -10.1621 286.979 3.19702C289.818 3.91429 292.567 4.72122 295.257 5.58792C315.669 -6.3815 345.974 -14.0025 379.805 -14.0025C416.117 -14.0025 448.334 -5.20101 468.627 8.30756Z" fill="#EAEAEA"></path><path opacity="0.5" d="M416.446 30.6475C418.538 29.3774 420.66 28.1371 422.842 26.9416C413.457 20.0678 397.677 15.54 379.805 15.54C361.934 15.54 345.347 20.3218 336.082 27.5095C338.025 29.0038 339.907 30.4981 341.701 32.0073C348.724 25.0289 363.159 20.2172 379.805 20.2172C395.376 20.2172 408.974 24.4162 416.446 30.6475Z" fill="#EAEAEA"></path><path opacity="0.5" d="M825.558 8.30756C828.278 7.50063 831.027 6.73854 833.807 6.00633C811.87 -8.93678 776.575 -18.6797 736.766 -18.6797C696.958 -18.6797 664.322 -9.65404 642.236 4.33271C645.016 5.04998 647.795 5.79712 650.515 6.60404C670.897 -5.94816 701.979 -14.0025 736.766 -14.0025C771.554 -14.0025 805.295 -5.20101 825.588 8.30756H825.558Z" fill="#EAEAEA"></path><path opacity="0.5" d="M773.497 30.7225C775.559 29.4524 777.681 28.1971 779.892 26.9867C770.538 20.083 754.698 15.5254 736.766 15.5254C719.97 15.5254 705.057 19.5301 695.523 25.7315C697.556 26.9569 699.558 28.227 701.501 29.542C709.211 23.9234 722.122 20.2175 736.766 20.2175C752.397 20.2175 766.055 24.4464 773.497 30.7375V30.7225Z" fill="#EAEAEA"></path><path opacity="0.5" d="M1182.94 8.59245C1185.63 7.78553 1188.38 7.00848 1191.12 6.27627C1169.22 -8.81627 1133.74 -18.6787 1093.7 -18.6787C1053.65 -18.6787 1019.64 -9.20477 997.611 5.36476C1000.39 6.09698 1003.14 6.85906 1005.86 7.66599C1026.21 -5.469 1057.95 -13.9866 1093.7 -13.9866C1129.44 -13.9866 1162.67 -5.06553 1182.94 8.60741V8.59245Z" fill="#EAEAEA"></path><path opacity="0.5" d="M1131.05 31.2313C1133.12 29.9462 1135.24 28.6909 1137.42 27.4656C1128.12 20.2929 1112.05 15.541 1093.73 15.541C1075.4 15.541 1060.43 19.9791 1051.02 26.7185C1053.14 27.9737 1055.2 29.2438 1057.2 30.5439C1064.71 24.3574 1078.24 20.2182 1093.7 20.2182C1109.15 20.2182 1123.73 24.6713 1131.02 31.2313H1131.05Z" fill="#EAEAEA"></path><path opacity="0.5" d="M1538.43 7.62145C1541.15 6.82946 1543.9 6.05241 1546.68 5.3202C1524.66 -9.23439 1489.87 -18.6934 1450.66 -18.6934C1411.45 -18.6934 1377.02 -9.33897 1354.99 5.08113C1357.8 5.7984 1360.55 6.56048 1363.27 7.35246C1383.62 -5.61815 1415.18 -14.0012 1450.66 -14.0012C1486.13 -14.0012 1518.11 -5.4986 1538.46 7.62145H1538.43Z" fill="#EAEAEA"></path><path opacity="0.5" d="M1486.46 29.9611C1488.49 28.7059 1490.58 27.4955 1492.74 26.3C1483.26 19.7849 1467.96 15.541 1450.66 15.541C1433.35 15.541 1418.11 19.7848 1408.64 26.2702C1410.76 27.4955 1412.79 28.7507 1414.79 30.0358C1422.38 24.1333 1435.62 20.2182 1450.69 20.2182C1465.75 20.2182 1478.87 24.1034 1486.49 29.976L1486.46 29.9611Z" fill="#EAEAEA"></path></g><path d="M-1 84.4949C135.5 58.9995 720 -85.5001 1449.5 84.4949" stroke="#201A17" stroke-width="5"></path></g><defs><clipPath id="clip0_2622_2"><rect width="1450" height="688" fill="white"></rect></clipPath></defs></svg>